<svg xmlns="http://www.w3.org/2000/svg" xmlns:xlink="http://www.w3.org/1999/xlink" viewBox="0 0 563.61 370.19"><defs><style>.cls-1{fill:url(#_ÂÁ_Ï_ÌÌ_È_ËÂÌÚ_12);}.cls-2{fill:url(#_ÂÁ_Ï_ÌÌ_È_ËÂÌÚ_196);}.cls-3{fill:url(#_ÂÁ_Ï_ÌÌ_È_ËÂÌÚ_196-2);}.cls-4{fill:url(#_ÂÁ_Ï_ÌÌ_È_ËÂÌÚ_208);}.cls-5{isolation:isolate;}.cls-6{opacity:0.2;}.cls-55,.cls-6{mix-blend-mode:screen;}.cls-55,.cls-7,.cls-8,.cls-9{fill:#fff;}.cls-25,.cls-8{opacity:0.5;}.cls-21,.cls-55,.cls-9{opacity:0.8;}.cls-10{fill:#227380;}.cls-11{fill:#31a1b0;}.cls-12{fill:url(#_ÂÁ_Ï_ÌÌ_È_ËÂÌÚ_338);}.cls-13,.cls-25{fill:#2c41a6;}.cls-13,.cls-44,.cls-56{opacity:0.3;}.cls-13,.cls-25,.cls-44,.cls-45,.cls-48,.cls-54,.cls-56{mix-blend-mode:multiply;}.cls-14{fill:#ffe9e9;}.cls-15{mask:url(#mask);}.cls-16{fill:#fff7e6;}.cls-17{fill:#fff6e1;}.cls-18{fill:#fff1d4;}.cls-19{opacity:0.4;}.cls-20{fill:#eadabb;}.cls-21{mix-blend-mode:lighten;}.cls-22{fill:#ffca45;}.cls-23{fill:#ffe8ae;}.cls-24{mask:url(#mask-2);}.cls-26{mask:url(#mask-3);}.cls-27{fill:#363344;}.cls-28{fill:#c6753e;}.cls-29{fill:#ffe180;}.cls-30{fill:#a85427;}.cls-31{fill:#393749;}.cls-32{fill:#2d2c3a;}.cls-33{fill:#efdeaf;}.cls-34{fill:#626376;}.cls-35{fill:#535568;}.cls-36{fill:#ffbc36;}.cls-37{fill:#f90;}.cls-38{fill:#ffdc48;}.cls-39{fill:#c5bbc7;}.cls-40{fill:#aca0af;}.cls-41{fill:#e7dee8;}.cls-42{fill:#f1ebf2;}.cls-43{fill:#ff9d00;}.cls-44,.cls-45,.cls-48{fill:#ad7f51;}.cls-45{opacity:0.25;}.cls-46{fill:#f09c00;}.cls-47{fill:#f49c5b;}.cls-48,.cls-54{opacity:0.6;}.cls-49{fill:#ffe471;}.cls-50{fill:#ffa300;}.cls-51{fill:#ffe35a;}.cls-52{mask:url(#mask-4);}.cls-53{fill:#4c4c5e;}.cls-54,.cls-56{fill:#725791;}.cls-57{fill:#777990;}.cls-58{fill:#a6aabf;}.cls-59{fill:#c7cde6;}.cls-60{fill:#fffdf8;}</style><radialGradient id="_ÂÁ_Ï_ÌÌ_È_ËÂÌÚ_12" cx="206.69" cy="96" r="37.42" gradientUnits="userSpaceOnUse"><stop offset="0" stop-color="#fff"/><stop offset="0.61" stop-color="#fff"/><stop offset="0.73" stop-color="#a9a9a9"/><stop offset="0.86" stop-color="#4f4f4f"/><stop offset="0.95" stop-color="#161616"/><stop offset="1"/></radialGradient><linearGradient id="_ÂÁ_Ï_ÌÌ_È_ËÂÌÚ_196" x1="201.72" y1="348.61" x2="253.88" y2="348.61" gradientUnits="userSpaceOnUse"><stop offset="0" stop-color="#fff"/><stop offset="1"/></linearGradient><linearGradient id="_ÂÁ_Ï_ÌÌ_È_ËÂÌÚ_196-2" x1="-460.39" y1="348.61" x2="-408.23" y2="348.61" gradientTransform="matrix(1, 0, 0, -1, 523.9, 697.22)" xlink:href="#_ÂÁ_Ï_ÌÌ_È_ËÂÌÚ_196"/><radialGradient id="_ÂÁ_Ï_ÌÌ_È_ËÂÌÚ_208" cx="422.29" cy="328.26" r="24.32" gradientTransform="translate(587.19 -180.55) rotate(70.1)" gradientUnits="userSpaceOnUse"><stop offset="0" stop-color="#fff"/><stop offset="0.16" stop-color="#fff"/><stop offset="0.42" stop-color="#a9a9a9"/><stop offset="0.7" stop-color="#4f4f4f"/><stop offset="0.9" stop-color="#161616"/><stop offset="1"/></radialGradient><linearGradient id="_ÂÁ_Ï_ÌÌ_È_ËÂÌÚ_338" y1="348.75" x2="563.61" y2="348.75" gradientUnits="userSpaceOnUse"><stop offset="0" stop-color="#31a1b0"/><stop offset="0.08" stop-color="#87ae7f"/><stop offset="0.12" stop-color="#b1b36d"/><stop offset="0.17" stop-color="#d3b65f"/><stop offset="0.21" stop-color="#ebb955"/><stop offset="0.25" stop-color="#faba4f"/><stop offset="0.28" stop-color="#ffbb4d"/><stop offset="0.56" stop-color="#87ae7f"/><stop offset="1" stop-color="#31a1b0"/></linearGradient><mask id="mask" x="169.28" y="58.58" width="74.83" height="74.83" maskUnits="userSpaceOnUse"><circle class="cls-1" cx="206.69" cy="96" r="37.42"/></mask><mask id="mask-2" x="201.72" y="347.89" width="52.16" height="1.44" maskUnits="userSpaceOnUse"><rect class="cls-2" x="201.72" y="347.89" width="52.16" height="1.44"/></mask><mask id="mask-3" x="63.51" y="347.89" width="52.16" height="1.44" maskUnits="userSpaceOnUse"><rect class="cls-3" x="63.51" y="347.89" width="52.16" height="1.44" transform="translate(179.19 697.22) rotate(180)"/></mask><mask id="mask-4" x="397.97" y="303.95" width="48.63" height="48.63" maskUnits="userSpaceOnUse"><circle class="cls-4" cx="422.29" cy="328.26" r="24.32" transform="translate(-30.13 613.58) rotate(-70.1)"/></mask></defs><title>Recurso 2</title><g class="cls-5"><g id="Capa_2" data-name="Capa 2"><g id="_1" data-name="1"><g class="cls-6"><path class="cls-7" d="M64.08,282c16-4.58,33.27-11.9,50.08-11.87,15.93,0,30.29.78,45.66,4.83,19.91,5.25,37.35,7,57.5.9,12.19-3.72,26.2-11.13,39.36-10.12,11.51.87,24.37.68,35,4.83,9,3.51,25.41,6.5,39.67,5,10.09-1.07,20-3.93,30.21-4.58,21.36-1.37,41,7.39,61.77,10.57,8.15,1.25,15.57,2.45,23.38,4.28,5,1.18,11.08-.28,16.19-1.19,16.56-3,33.65-1.52,50.32.47,6.87.82,13.81,1.38,20.74,1.93-.32-11.3-1-24.37-2.42-38.59a217.18,217.18,0,0,0-31.44.56c-23.08,2.41-45.06,9-68.38,9.69-10.67.31-21-1.33-31.49-2.64A148.05,148.05,0,0,0,367,256c-12,1.25-26.32,4.38-38.3,4-20.9-.71-39.46-6.2-60.48-8.26-26.61-2.61-35.3,4.61-51,.88-12.17-2.89-19.41-12.58-32-14.06-21.59-2.53-31.75,1-53,2.64-4.81.36-13,2.19-22.5,4.83-9,2.49-25.55,10.09-33,11.86-12.28,2.92-26.12.7-39.24-.38-1.29,10.16-2.21,19.6-2.86,28.09h.14A97.19,97.19,0,0,0,64.08,282Z"/><path class="cls-8" d="M79.16,212.67c13.49-1.89,27.12-5.79,40.85-5.06,21.92,1.17,43.28,6.44,65.51,4.28,26.56-2.59,50.76-15.74,78.16-12.9,8.83.91,15,2.64,26,3.95,29.61,3.55,48.6-11.5,75-3.07,19.3,6.16,36.26,20.42,56.74,18,16-1.9,29.45-12,45.31-14.93,11-2,22.63-4.85,33.69-5.76-8.19-4-21.66-1.9-30.86-1.75a95.06,95.06,0,0,0-18.63,1.83c-5.64,1.26-10.45,2.48-16.43,2.59-22.51.4-47.41,2.35-69.43-2.41-14.93-3.23-29.31-7.85-44.46-10.54-19.44-3.45-36-3.95-56-2.51-18.51,1.33-35.51,10.37-53.92,12.39-12,1.32-20.83-6.92-30.46-7.57A213.8,213.8,0,0,0,134.8,191c-16.16,2.24-30.3,14.15-46.12,17.68-10.16,2.27-18.5,0-31.5-.44-3.59-.12-7.46-.47-11.18-.27q-1.11,5-2.08,9.85c4.41-1.07,8.76-2.23,13-3.17C64,213,71.87,213.68,79.16,212.67Z"/><path class="cls-9" d="M64.33,160.45c13.49-.91,26.73-2.65,40-4.86,13.67-2.27,25.25-3.08,38.56.56,21.56,5.9,41.11,3.19,62.86-1.78,34.36-7.85,92.36,4.82,117.36-8.85l-5.34-7.66c-18.92,7-34.49,10.35-47.33,10.33-22.22,0-30.33-7-39.27-8.07a166.62,166.62,0,0,0-38.52-.43c-10.86,1-23.5,8.89-34.5,8.35-13-.65-24.29-11-36.11-14-12.34-3.14-25.3-4.26-37.91-5.86a67.11,67.11,0,0,1-11.33-2.54c-5.22,11.54-9.77,23.26-13.71,34.95C60.77,160.63,62.5,160.58,64.33,160.45Z"/><path class="cls-7" d="M455.08,109.5c-9.28-1-17.5.11-26.49,2-8.47,1.77-18.39,5.13-27.07,4.15-10.94-1.24-22.46-2.31-33.59-1-11.28,1.36-25,4.23-33.75,11,28.95-9.11,63.06-4.79,92.92-.53,18.77,2.68,38.73,3.86,57.41.3,5.43-1,11.35-1.89,17.32-2.48q-2.13-5.11-4.46-10.16C483.06,113.72,469.85,111.1,455.08,109.5Z"/></g><path class="cls-10" d="M6,327.44H106c.31-4.23-3.14-6.15-6.67-4.68,3.06-10.95-10.5-16.33-16.9-7.67-.82-9.94-10.07-7-12.63-2.06,5.48-18.18-26-20.09-27.72-3.47-4.83-6.2-14.3.42-12.16,5.95-7.29-3.21-11.6,2.57-9.73,7.64C15.63,318.18,6.92,323.3,6,327.44Z"/><path class="cls-10" d="M164,327.44H264.09c.32-3.65-3.14-5.31-6.67-4,3.06-9.46-10.5-14.1-16.9-6.62-.82-8.59-10.07-6-12.63-1.78,5.48-15.69-26-17.34-27.72-3-4.83-5.36-14.29.36-12.16,5.13-7.29-2.77-11.6,2.22-9.73,6.59C173.68,319.45,165,323.87,164,327.44Z"/><path class="cls-11" d="M257.75,327.44H366.69c.33-4.6-3.43-6.69-7.27-5.1C362.75,310.42,348,304.57,341,314c-.89-10.82-11-7.62-13.75-2.25,6-19.78-28.33-21.86-30.17-3.77-5.26-6.75-15.56.46-13.24,6.48-7.93-3.5-12.62,2.79-10.58,8.31C268.27,317.37,258.8,322.93,257.75,327.44Z"/><path class="cls-10" d="M378.94,327.44H502.82c.38-5.23-3.9-7.61-8.27-5.8,3.79-13.55-13-20.21-20.91-9.48-1-12.31-12.46-8.67-15.64-2.56,6.79-22.49-32.21-24.85-34.3-4.29-6-7.67-17.7.53-15.06,7.37-9-4-14.35,3.17-12,9.45C390.91,316,380.13,322.32,378.94,327.44Z"/><path class="cls-11" d="M474.26,327.42H559c-2.09-5.34-6.27-7.55-10-3.32.28-3.67-1.87-8.78-5.43-6.07.78-5.63-6.59-1.69-7.91.79,1.7-3.43,2.19-9.89-.56-12.71-2.94-3-10-1.71-10.43,3.78-1.85-3.27-7.65-4-7.56,1.45-1.88-1.13-3.84-.12-4.48,2.32-.1-18.14-15.48-11.67-15.3-.28-4.47-3.21-8.07,3.08-7.53,8.21-1.11-3-5.06-2.47-6,.4a2.48,2.48,0,0,0-3.43.46,4.13,4.13,0,0,0-6.33,4.89C474,327.06,474.37,327.68,474.26,327.42Z"/><path class="cls-11" d="M330.38,327.42h84.74c-2.09-5.34-6.27-7.55-10-3.32.28-3.67-1.87-8.78-5.43-6.07.78-5.63-6.59-1.69-7.91.79,1.7-3.43,2.19-9.89-.56-12.71-2.94-3-10-1.71-10.43,3.78-1.85-3.27-7.65-4-7.56,1.45-1.88-1.13-3.84-.12-4.48,2.32-.1-18.14-15.48-11.67-15.3-.28-4.47-3.21-8.07,3.08-7.53,8.21-1.11-3-5.06-2.47-6,.4a2.48,2.48,0,0,0-3.43.46,4.13,4.13,0,0,0-6.33,4.89C330.1,327.06,330.49,327.68,330.38,327.42Z"/><path class="cls-12" d="M0,327.3H563.61s-64.78,42.89-291.79,42.89S0,327.3,0,327.3Z"/><path class="cls-13" d="M283.07,330.44c130.5,0,238.58,1,272,1.33,6.38-2.83,8.56-4.47,8.56-4.47H0s1.93,2.14,7.05,4.5C37.5,331.48,148.65,330.44,283.07,330.44Z"/><circle class="cls-14" cx="265.8" cy="141.19" r="1.75"/><circle class="cls-14" cx="446.14" cy="159.52" r="1.75"/><circle class="cls-14" cx="199.14" cy="31.19" r="1.75"/><circle class="cls-14" cx="257.72" cy="63.19" r="1.75"/><circle class="cls-14" cx="223.8" cy="185.19" r="1.75"/><circle class="cls-14" cx="120.8" cy="122.19" r="1.75"/><circle class="cls-14" cx="387.39" cy="92.91" r="1.75"/><circle class="cls-14" cx="322.14" cy="40.52" r="1.75"/><path class="cls-14" d="M361.47,68.19a1.08,1.08,0,1,0,1.08-1.08A1.08,1.08,0,0,0,361.47,68.19Z"/><path class="cls-14" d="M447.72,122.44a1.09,1.09,0,1,0,1.08-1.08A1.08,1.08,0,0,0,447.72,122.44Z"/><path class="cls-14" d="M151.64,39.19a1.08,1.08,0,1,0,1.08-1.08A1.08,1.08,0,0,0,151.64,39.19Z"/><path class="cls-14" d="M289.47,39.19a1.08,1.08,0,1,0,1.08-1.08A1.08,1.08,0,0,0,289.47,39.19Z"/><path class="cls-14" d="M366.39,10.58a1.08,1.08,0,1,0,1.08-1.08A1.08,1.08,0,0,0,366.39,10.58Z"/><path class="cls-14" d="M416.39,50.19a1.08,1.08,0,1,0,1.08-1.08A1.08,1.08,0,0,0,416.39,50.19Z"/><path class="cls-14" d="M188.72,148.27a1.09,1.09,0,1,0,1.08-1.08A1.08,1.08,0,0,0,188.72,148.27Z"/><path class="cls-14" d="M305.72,103.19a1.09,1.09,0,1,0,1.08-1.08A1.08,1.08,0,0,0,305.72,103.19Z"/><path class="cls-14" d="M260.81,1.08A1.08,1.08,0,1,0,261.89,0,1.08,1.08,0,0,0,260.81,1.08Z"/><path class="cls-14" d="M412.64,180.52a1.08,1.08,0,1,0,1.08-1.08A1.08,1.08,0,0,0,412.64,180.52Z"/><path class="cls-14" d="M153.72,203.44a1.09,1.09,0,1,0,1.08-1.08A1.08,1.08,0,0,0,153.72,203.44Z"/><path class="cls-14" d="M160.72,150.6a1.09,1.09,0,1,0,1.08-1.08A1.08,1.08,0,0,0,160.72,150.6Z"/><g class="cls-15"><circle class="cls-16" cx="206.69" cy="96" r="37.42"/></g><path class="cls-17" d="M234.88,96.58c0,15.6-11,27.67-27.92,27.33-15.6-.3-28.25-12.64-28.25-28.25s9.5-27.08,28.25-28.25C222.53,66.44,234.88,81,234.88,96.58Z"/><path class="cls-18" d="M232.56,96.5c0,14.32-10.09,25.39-25.61,25.08A26.1,26.1,0,0,1,181,95.66c0-14.31,8.72-24.85,25.92-25.92C221.24,68.85,232.56,82.19,232.56,96.5Z"/><g class="cls-19"><path class="cls-20" d="M214.48,82c-3.82-3-8.67.1-9.37,4.14-.42,2.45,3.08,4.18,4.92,5.2,2.47,1.36,7.39.81,8.26-2.4C219,86.37,216.36,83.52,214.48,82Z"/><path class="cls-20" d="M226.65,86.41c-.77-.92-1.92-2.19-2.86-1.78-2.17.42-2.81,2.18-2.29,4s.13,3.69,2.38,4.06C228,93.39,228.9,89.08,226.65,86.41Z"/><path class="cls-20" d="M217.09,93.63c-1.14.29-2.7,3.25,0,2.86C219.42,96.14,218.24,93.34,217.09,93.63Z"/><path class="cls-20" d="M206.88,72.22c-1.15.29-2.71,3.24,0,2.85C209.21,74.72,208,71.93,206.88,72.22Z"/><path class="cls-20" d="M209,78.68c.81.88,5.12,1,3.61-1.22C211.3,75.53,208.23,77.8,209,78.68Z"/><path class="cls-20" d="M216.18,79.2c.52,2.27,5.23,5.62,5.39,1.57C221.67,78.27,215.91,76.65,216.18,79.2Z"/><path class="cls-20" d="M197.62,81c1.34,1.89,7,3.21,5.58-.6C202.35,78,196.4,78.7,197.62,81Z"/><path class="cls-20" d="M200.16,93.7c.52,2.26,5.23,5.62,5.39,1.57C205.65,92.77,199.89,91.15,200.16,93.7Z"/></g><g class="cls-21"><ellipse class="cls-22" cx="159.48" cy="349.13" rx="77.92" ry="5.19"/><path class="cls-23" d="M216.2,349.13c0,2.08-25.39,3.77-56.72,3.77s-56.72-1.69-56.72-3.77,25.39-3.78,56.72-3.78S216.2,347,216.2,349.13Z"/></g><g class="cls-24"><rect class="cls-25" x="201.72" y="347.89" width="52.16" height="1.44"/></g><g class="cls-26"><rect class="cls-25" x="63.51" y="347.89" width="52.16" height="1.44" transform="translate(179.19 697.22) rotate(180)"/></g><path class="cls-27" d="M169.37,296a.72.72,0,0,1-.71-.69c0-.14-.46-13.79-6.44-20.06a.71.71,0,1,1,1-1c6.36,6.67,6.82,20.42,6.84,21a.71.71,0,0,1-.69.73Z"/><path class="cls-28" d="M115.84,349.31s-.6-23.82-.4-36.71.2-25.38.3-30.14,2.67-9.62,4-13.48c0-.85-.49-1.18-1.29-1.19,0,0-3.76,10-4.56,10.11l-1.09,2.87s.7,25.68.7,32.32-1.29,36.22-1.29,36.22Z"/><path class="cls-28" d="M202.82,279c-.2-2.38-2.38-4.56-3.71-6.94a15.2,15.2,0,0,1-1.65-4.23,1.35,1.35,0,0,1,1.79-.92,27.61,27.61,0,0,0,2.24,4c1.13,1.52,3.37,4.3,3.37,4.3Z"/><path class="cls-29" d="M202.88,278.9l.84-1.56a14,14,0,0,1,.78-2.6l-.36-.46h0c-.19-.22-.39-.48-.61-.76h0c-.11-.13-.21-.27-.32-.41l0,0c-.12-.14-.23-.28-.34-.43l-1.58,2.72q.27.4.51.81v0c.16.28.31.55.44.82h0a5.87,5.87,0,0,1,.55,1.69Z"/><path class="cls-30" d="M199,267.85c.53.2,1.06,4.37,4.56,6.94l.25-.94c-.73-.92-1.68-2.13-2.3-3a27.61,27.61,0,0,1-2.24-4,1.35,1.35,0,0,0-1.79.92A3.63,3.63,0,0,1,199,267.85Z"/><path class="cls-28" d="M105.13,276.71s5.15-.6,16.75,0,27,3,34.9,2.87l.5-2.67s-4.66.3-21-1-20.52-1.69-31.23-1.39C105,274.53,104.63,276,105.13,276.71Z"/><path class="cls-30" d="M105,274.53s-.4,1.49.1,2.18a72.62,72.62,0,0,1,7.64-.26l-.65-2C110,274.42,107.7,274.45,105,274.53Z"/><path class="cls-30" d="M157.28,276.91s-4.66.3-21-1c-11.72-.93-17.18-1.39-23.28-1.47l.21.41a97.26,97.26,0,0,1,11.57.46c8.79.66,22.93,2.71,31.79,2.45l.57,0Z"/><path class="cls-29" d="M122.18,276.81c11.6.59,26.32,3,34.6,2.77l.22-1.15c-2.76,0-5.48-.05-7.8-.13A151.13,151.13,0,0,1,132,277c-6.6-1.09-15-1.79-17.77-.55C116.33,276.48,119.19,276.66,122.18,276.81Z"/><path class="cls-28" d="M151.33,279.49a99.57,99.57,0,0,0,26.47-2.28,16.21,16.21,0,0,0-2.38,2.57,2.36,2.36,0,0,0,2.28.4,13.71,13.71,0,0,1,5.85-3.17c3.57-.9,23.1-1.59,28.16-1.69a3.89,3.89,0,0,0,2.08-5.15s-14.38,1.48-27.46,3.07-22.91,3.77-33.81,3.67Z"/><path class="cls-30" d="M205.88,275.49l5.83-.17a3.89,3.89,0,0,0,2.08-5.15s-2.49.25-6.34.67Z"/><path class="cls-30" d="M186.33,273.24c-13.09,1.59-22.91,3.77-33.81,3.67l-.38.82c1.56.06,3.05.08,4.41,0,8.86-.27,14.81-2,15-1.79s-2,.4-1.72.73,11.66-2.22,18.68-2.68c10.6-.69,15.07.2,18.24-.2l.93-3C202.28,271.4,194.07,272.3,186.33,273.24Z"/><path class="cls-29" d="M177.8,277.21s-.19-.85-7.14.34c-9.52,1.64-12.24,1-18.82.82l-.51,1.12C157.18,279.88,169,279.75,177.8,277.21Z"/><path class="cls-28" d="M205.72,349.31s-1.05-28.85-.79-40.35.4-28.68,1.06-31.19,3.63-8.66,4.16-10.71a1.51,1.51,0,0,0-1.85-.73s-4.16,7.6-5.09,10,.13,13.55-.26,22.48-1.32,33-1.39,40.58.2,9.94.2,9.94Z"/><path class="cls-29" d="M202.15,334.74c-.06-5.49.67-14.74.67-18.37s.59-20.36.59-25,.33-10.31-.07-12.42a5.53,5.53,0,0,0-1.78-3.13,12.68,12.68,0,0,1,1.09,3.13c.15.84.46,12.81.15,19.83-.4,8.92-1.25,33-1.32,40.58a79.33,79.33,0,0,0,.28,9.94h.2C202,347.68,202.21,339.65,202.15,334.74Z"/><path class="cls-30" d="M179.62,278.36c-1.08.63-2.91,2.28-4.19,1.41h0a1.94,1.94,0,0,0,2.28.4c1.16-.73,2.91-2.48,5.85-3.17A8,8,0,0,0,179.62,278.36Z"/><path class="cls-29" d="M194.29,275.39c-8.06.46-10.74,1.62-10.74,1.62,2.36-.56,17.79-1.24,19.14-1.39A38.1,38.1,0,0,0,194.29,275.39Z"/><path class="cls-29" d="M115.82,282.46a20.75,20.75,0,0,1,1.05-5.89,7.44,7.44,0,0,0-1.68,4.6c-.25,3.22,0,5.11.1,9.92s-.4,19.87-.4,26.07-.82,24.18-.55,32.15h1.5s-.52-23.82-.32-36.71S115.72,287.22,115.82,282.46Z"/><path class="cls-28" d="M112.82,282c-.33-3.38-1.68-6.95-2.34-9.33s-1.52-6.35-1.52-6.35a1.11,1.11,0,0,1,1.65-.2s1.19,4.57,1.92,6.28,2.25,5.69,2.25,5.69Z"/><path class="cls-30" d="M113.15,349.31c.09-4.47.52-14.54.7-24.22.2-10.57.1-22.74-.1-28s.5-14.34-.09-17-2-5.09-2.78-7.47a57.13,57.13,0,0,1-1.34-6.77,1.24,1.24,0,0,0-.58.42s.86,4,1.52,6.35a57,57,0,0,1,2.31,9.09c.13,4.76.67,25.46.67,31.32,0,6.65-1.29,36.22-1.29,36.22Z"/><path class="cls-29" d="M175.42,279.78c0-.36,2.41.23,2.11.53S175.55,280.38,175.42,279.78Z"/><path class="cls-29" d="M208.19,266.54h0l-.11.22,0,.06c-.71,1.3-2.65,4.9-3.89,7.45q-.34.69-.6,1.26a7.73,7.73,0,0,0-.53.84,5,5,0,0,0-.15,2.49l.62,1c0-3.65,1.45-6.17,2.38-8.09a46,46,0,0,1,3.57-5.44,1.17,1.17,0,0,0-.24-.09l-.13,0h-.35a2.2,2.2,0,0,0-.41.07l0,.06Z"/><path class="cls-30" d="M209.13,267.69c0,.69-4.27,8.62-4.46,10.51s-.1,9.91-.2,17.05-.4,25-.4,31c0,5.21.08,19.25.1,23h1.55s-1.05-28.85-.79-40.35.4-28.68,1.06-31.19,3.63-8.66,4.16-10.71a1.51,1.51,0,0,0-1.85-.73S209.13,267,209.13,267.69Z"/><ellipse class="cls-31" cx="169.42" cy="296.39" rx="1.54" ry="2.03"/><path class="cls-31" d="M134.87,298.72l47.09-.6s1.49,27.57-25.48,26.87C133.68,324.4,134.87,298.72,134.87,298.72Z"/><path class="cls-32" d="M158.62,301.43c9.91,0,18.08,5.75,19.27,13.19,4.75-7.63,4.27-16.79,4.27-16.79l-47.29.89s-.22,9,4.39,16.51C140.09,307.5,148.44,301.43,158.62,301.43Z"/><path class="cls-33" d="M156.45,323.73c-12,0-17.47-7.06-19.95-13.87,2.25,7,7.54,14.87,20,15.2,15.42.4,21.53-8.48,23.94-16.15C177.71,316.07,171.34,323.73,156.45,323.73Z"/><path class="cls-34" d="M182.18,297.93c0,.87-10.59,1.73-23.66,1.92s-23.65-.38-23.65-1.25,10.59-1.74,23.65-1.93S182.18,297.05,182.18,297.93Z"/><path class="cls-35" d="M168.93,296.71h.55c-3.28-.07-7-.08-11,0-13.06.19-23.65,1.05-23.65,1.93,0,.57,4.58,1,11.43,1.19C149.26,298.32,158.27,297,168.93,296.71Z"/><path class="cls-27" d="M146.47,298.73h0a.7.7,0,0,1-.69-.72c0-1,.84-25.39,12-26.36.41-.07,2.75-.28,5.46,2.58a.7.7,0,0,1,0,1,.71.71,0,0,1-1,0c-2.33-2.47-4.13-2.18-4.2-2.17h-.08c-10,.83-10.75,24.75-10.75,25A.71.71,0,0,1,146.47,298.73Z"/><path class="cls-34" d="M150.82,305.8c1,1.07.18,3.5-1.86,5.41s-4.5,2.6-5.51,1.53-.18-3.5,1.86-5.41S149.81,304.73,150.82,305.8Z"/><path class="cls-34" d="M143.13,314.24a1.51,1.51,0,0,1,1.65,1.29,1.48,1.48,0,0,1-.85,1.89,1.52,1.52,0,0,1-1.65-1.29A1.48,1.48,0,0,1,143.13,314.24Z"/><path class="cls-32" d="M148.06,299.26c0,1.13-.69,2-1.54,2s-1.54-.91-1.54-2a1.6,1.6,0,1,1,3.08,0Z"/><path class="cls-36" d="M150.54,330.05c.26-1.21,2.33-2.94,2.33-3-.19-1.47,3.18-2.87-.5-4.51-1.34-.59-2.43-1.24-2.53-2.58s1.44-3.37,1.19-4.26a1.37,1.37,0,0,1,.7.94c.19.75,0,1.84.64,1.74s.74-.89.64-1.49a6.61,6.61,0,0,1-.32-1.58c0-.67.57-.65.67-1.27.27-1.66-1.93-1.82,3.84-6.54a7.6,7.6,0,0,0,2-3.15c1.36,3.35-.81,3.76-.92,5.9-.07,1.49,1.39,1.86,1.64,2.75s-.45,1.76-.2,2.4,2.43.77,2.85,1.91c.52-1.64,2.24-1.86,2.55-2.65.07,2,.59.86.15,3.47-.25,1.53,2.06,3.67,2.16,6l-.89,10.58L150,336.54Z"/><path class="cls-36" d="M162,334.38a3.45,3.45,0,0,1,.08-3.09c.86-1.61,1.26-2.66,1.83-3.05s1.81-.5,2.31-1.46.76-2.63,1.31-3.47,2.48-1.14,2.9-2.21a2.3,2.3,0,0,1,0,1.39,1.54,1.54,0,0,0,.27,1.53c.25.33.79.48,1,1.27a3.93,3.93,0,0,1,0,1.83,2.61,2.61,0,0,0,.91-1.14,5.24,5.24,0,0,1,.13,1.76c-.19,1.19,1.71,2.61.44,4.74C172.47,333.65,162,334.38,162,334.38Z"/><path class="cls-36" d="M142.41,332.89c-.07-.93-1.46-1.65-1.33-3.57a8.21,8.21,0,0,1,1.85-3.9s0,.79.6.93,1.85-1,2.64-2.85c.41-1-.13-2.38,1-3.5a3.66,3.66,0,0,0,1.52,2.58c1.07.58,2.15,1,2.55,2.51s-2.23,3.22-2.13,3.77,2.38.25,2.92,2.33-1.48,3-1.24,4.36Z"/><path class="cls-37" d="M144.19,333.57c-.1-1.14-1.93-1.69-1.54-3a1.15,1.15,0,0,0,1.34.65c.89-.3.55-1.59,2.08-2.68a1.93,1.93,0,0,0-.24,2.08c.42.79,1.88.1,3.22.8s2.18,3.47,2.18,3.47-.23-2.83,1.42-4.22c1.4-1.17,1.75-.29,3.14-1a2.27,2.27,0,0,0,1.24-2.18,1.21,1.21,0,0,1,.54,1.09,4.26,4.26,0,0,0,1-3.32c-.35-1.88-1.54-2.28-2.09-3.07a1,1,0,0,0,.6.05c.25-.1.15-1.79-.69-2.58a3.73,3.73,0,0,1-1.39-2.08,1.88,1.88,0,0,0,1.19.49c.59-.05-1-1.44-.6-3.37,0,0,.45,1.54.94,1.69s.55-.6,1-1.14c0,0-.5,2,.44,2.72s1.44-.1,2.33.89.2,1.69.45,3.13a3,3,0,0,0,.94,1.93,5.2,5.2,0,0,1,1.19-2.43,2.41,2.41,0,0,0,.25,1.94c.59.69,2.13-.76,2.13-.76a3.35,3.35,0,0,1-.27,3.5c-1.12,1.72-1.71,3.24-1,4.62a6.8,6.8,0,0,1,1.59-3.1c1.25-1.32,2.71-1.52,3-3,.2,1.46,1.59,1.52,1.52,3.57s-2.26,3.13-2.26,3.13a6.9,6.9,0,0,1,2.19-.55,1.74,1.74,0,0,0,1.85-1.52s1.19,2.71-1.12,3.6L151,336.19Z"/><path class="cls-38" d="M172.72,327.74a5.24,5.24,0,0,0-.13-1.76,2.61,2.61,0,0,1-.91,1.14,3.93,3.93,0,0,0,0-1.83c-.25-.79-.79-.94-1-1.27a1.54,1.54,0,0,1-.27-1.53,2.3,2.3,0,0,0,0-1.39c-.42,1.07-2.36,1.36-2.9,2.21a2.14,2.14,0,0,0-.13.22c-.4-2.06-2.31-4-2.08-5.38.44-2.61-.08-1.51-.15-3.47-.31.79-2,1-2.55,2.65-.42-1.14-2.6-1.26-2.85-1.91s.45-1.51.2-2.4-1.71-1.26-1.64-2.75c.11-2.14,2.28-2.55.92-5.9a7.6,7.6,0,0,1-2,3.15c-5.77,4.72-3.57,4.88-3.84,6.54-.1.62-.64.6-.67,1.27a6.61,6.61,0,0,0,.32,1.58c.1.6,0,1.39-.64,1.49s-.45-1-.64-1.74a1.37,1.37,0,0,0-.7-.94c.25.89-1.29,2.93-1.19,4.26s1.19,2,2.53,2.58c3.68,1.64.31,3,.5,4.51a11.52,11.52,0,0,0-2.16,2.52c-.76-.38-1.55-.42-1.61-.73-.1-.55,2.53-2.28,2.13-3.77s-1.48-1.93-2.55-2.51a3.66,3.66,0,0,1-1.52-2.58c-1.12,1.12-.58,2.52-1,3.5-.79,1.9-1.93,3-2.64,2.85s-.6-.93-.6-.93a8.21,8.21,0,0,0-1.85,3.9c-.11,1.6.84,2.37,1.19,3.12-.47-1.49-.86-1.77-.86-2.86a5.18,5.18,0,0,1,1.13-2.57s-.2,1.83.92,1.78c1.46-.06,3.7-2.71,3.7-3.9a4.75,4.75,0,0,1,.4-2s.27,1.58.86,1.85c.86.4,1.85-.86,2.05.59.25,1.85-3.37,2.52-3.17,3.9s3,1.33,3.63,3.38c0,0-.22-3,1.65-4.37,2.31-1.62,4.1-1.25,4.1-3.57,0-1.85-3.43-2.38-3.5-3.9,0,0,1.15.44,1.59,0,1.19-1.19-1.26-2.71-1.26-4.16s1.12-.26,1.19-1.39-2.91-4.29,2.51-6.14c0,0-1.52,2.44-.53,4,.64,1,2-.33,2.38.46s-.86,2.05-.53,3,1.79-.33,2.71.2,1.39,2.24,1.32,3.37a7.7,7.7,0,0,1,2.05-3.44,10,10,0,0,0-.39,2.25c0,.92,1.19,1.12,2,2.64s-.26,4.63-.26,4.63a7.81,7.81,0,0,1,2-2.32,16,16,0,0,1,1.59-.92,3.91,3.91,0,0,0,.33,2c.46.66,1.26,2.77.6,4.23a3.07,3.07,0,0,0,1.38-.93,5.2,5.2,0,0,1,1.13,2.65,4.32,4.32,0,0,1-.45,1.95,1.25,1.25,0,0,0,.6-.38C174.43,330.35,172.53,328.93,172.72,327.74Z"/><path class="cls-38" d="M139.68,327.87a2.25,2.25,0,0,0,.3-2.48c-.5-.75-1.14-1.64-1.14-1.64a3.49,3.49,0,0,0-.4,2.28C138.74,327.07,139.58,327.32,139.68,327.87Z"/><path class="cls-38" d="M141.17,324.79a4.48,4.48,0,0,1,1.53-4.46c1.34-.84,1.44-1.63,1.44-1.63s.6,2.38-.2,3.76S141.41,324.2,141.17,324.79Z"/><path class="cls-38" d="M172.48,323.7a1.73,1.73,0,0,1-.3-1.91,3.11,3.11,0,0,1,1.62-1.43,3,3,0,0,0-.3,1.26C173.54,322.22,173.73,323.44,172.48,323.7Z"/><path class="cls-38" d="M168.05,321.16s2-.89,1.65-2.45-.79-2.34-.69-3.4a6,6,0,0,1-.83,1.55c-.43.46-1.25,1.49-1,2.18S168.22,320.63,168.05,321.16Z"/><path class="cls-38" d="M161.74,311.44c.13.83,1.19,1.46,1.32,2.25a1.74,1.74,0,0,1-.26,1.29s-.5-.46-1.16-1S161.74,311.44,161.74,311.44Z"/><path class="cls-38" d="M161.08,310.81a1.9,1.9,0,0,1-.8-2c.43-1.19,1.59-1.89,1.69-3.14a4.3,4.3,0,0,1,.93,2.8C162.66,309.76,161.31,309.89,161.08,310.81Z"/><path class="cls-28" d="M173.87,332.16a3.54,3.54,0,0,1,1.58,1.65l1.72-.06a5.13,5.13,0,0,1,1.39,2.77l-19.76,3.57-8.66-4.49a105,105,0,0,0,11.37-1.45C167.59,333,173.87,332.16,173.87,332.16Z"/><path class="cls-29" d="M151.73,335.85c4.23-.71,6.41-.25,11-1.24a92.22,92.22,0,0,1,11.65-2.15,2.51,2.51,0,0,0-.48-.3s-6.28.86-12.36,2c-3.49.64-9.27,1.24-11.37,1.45Z"/><path class="cls-30" d="M158.73,337l5.55,2.11,14.28-2.58a4.24,4.24,0,0,0-.64-1.78,59.34,59.34,0,0,0-7.75.86C166.13,336.39,160.65,337.12,158.73,337Z"/><path class="cls-30" d="M171.22,334.34c1.59-.26,4.23-.53,4.23-.53a6,6,0,0,0-.53-.79c-.79.16-2.16.45-3.63.79-2.25.53-5.35,1.13-5.29,1.39S169.64,334.61,171.22,334.34Z"/><path class="cls-30" d="M157,336.15a28,28,0,0,0,8.51-1.39.11.11,0,0,0-.06-.22c-2.82.64-5.58,1.08-8.45,1.44a.09.09,0,0,0,0,.17Z"/><path class="cls-28" d="M132.23,341.48a10.27,10.27,0,0,1,1.45-7.14l2.71-.19L134.54,333a5.25,5.25,0,0,1,2.64-2.52,15.29,15.29,0,0,0,5.56,2.45c3.57.86,13.48,4.49,18.44,4.89S184.71,335,184.71,335a10.72,10.72,0,0,1,2.38,3.9c1,2.65.19,6.94.19,6.94L173,348.49l-25.25-.2Z"/><path class="cls-29" d="M185.23,335.58c-.32-.38-.52-.58-.52-.58s-18.58,3.18-23.53,2.78-14.87-4-18.44-4.89a15.29,15.29,0,0,1-5.56-2.45,7.18,7.18,0,0,0-1.35.89c.63.57,1.79.9,3.87,1.3a55.37,55.37,0,0,1,11.17,3.23c4.69,1.92,6.08,2.58,10.5,3s9.46-1.26,13.49-2C178,336.29,183.91,336,185.23,335.58Z"/><path class="cls-30" d="M187.58,342.24a14.68,14.68,0,0,0-.08-1.48c-4.79.06-13.64.74-18.26,1-5,.26-12.43.79-16,.39s-8-2.18-11.57-2.84c-3-.56-6.71-.65-9.47-1a9.65,9.65,0,0,0,0,3.16l15.53,6.81,25.25.2,11.49-2.13C185.53,345,186.73,343.39,187.58,342.24Z"/><path class="cls-30" d="M144.59,336.13c.13-.2-3.7-1.52-5-2.05-.95-.4-3.66-1.15-4.91-1.48a3.21,3.21,0,0,0-.18.36l1.85,1.19-2.71.19,4.56.66C140,335.27,144.45,336.33,144.59,336.13Z"/><path class="cls-30" d="M184.9,338.9c.07.4,2.19,0,2.19,0-.11-.28-.22-.53-.33-.78C186,338.3,184.86,338.63,184.9,338.9Z"/><path class="cls-30" d="M152.26,339.81c-6.31-1.2-13.06-3.92-19.58-3.39l-.09.27c6.79.2,12.95,3,19.64,3.35A.12.12,0,0,0,152.26,339.81Z"/><path class="cls-30" d="M161.54,339.64a91.3,91.3,0,0,1-11.41-1.25c-.07,0-.1.09,0,.11a32.35,32.35,0,0,0,11.44,1.31A.09.09,0,1,0,161.54,339.64Z"/><path class="cls-30" d="M165.34,339.48c6.93.55,13.83-1.71,20.68-2.76l-.17-.28c-6.89.66-13.49,2.91-20.51,2.82A.11.11,0,0,0,165.34,339.48Z"/><path class="cls-30" d="M153.7,337.85a24.18,24.18,0,0,1-6.07-2,19.34,19.34,0,0,0-4.48-1.61.1.1,0,0,0-.05.19c3.64,1.05,6.78,3.08,10.58,3.57C153.76,338,153.78,337.87,153.7,337.85Z"/><path class="cls-30" d="M181.91,339.89c-2.7.19-5.6,0-8.24.57-.06,0,0,.11,0,.1,2.69-.25,5.62.16,8.25-.49C182,340,182,339.89,181.91,339.89Z"/><polygon class="cls-33" points="121.19 349.31 125.42 342.8 132.16 341.61 133.22 340.03 140.62 339.37 145.65 344.13 148.95 344.39 152.12 349.31 121.19 349.31"/><polygon class="cls-33" points="150.93 349.31 151.53 343.13 158.37 336.49 166.79 338.08 173.44 342.44 174.53 349.31 150.93 349.31"/><polygon class="cls-33" points="172.74 349.31 176.41 342.24 181.57 338.77 190.29 340.66 191.48 343.73 194.36 344.62 197.73 349.31 172.74 349.31"/><polygon class="cls-39" points="125.42 342.8 132.16 341.61 133.22 340.03 140.09 340.36 142.01 346.31 146.83 346.11 148.75 345.25 151.06 347.56 152.12 349.31 121.19 349.31 125.42 342.8"/><polygon class="cls-39" points="150.93 349.31 151.53 343.13 154.1 342.67 159.85 339.1 167.13 340.29 173.44 342.44 174.53 349.31 150.93 349.31"/><polygon class="cls-39" points="174.06 346.64 177.04 345.84 177.83 343.33 185.24 342.08 190.29 340.66 191.48 343.73 194.36 344.62 197.73 349.31 173.6 349.31 174.06 346.64"/><polygon class="cls-40" points="149.41 348.36 151.06 347.56 152.12 349.31 121.19 349.31 123.28 346.14 126.87 344.82 129.91 342.01 132.16 341.61 129.06 345.71 135.07 348.55 142.01 346.31 146.83 346.11 149.41 348.36"/><polygon class="cls-40" points="150.77 349.31 151.53 343.13 154.1 342.67 155.96 346.44 164.28 347.76 168.18 345.25 167.13 340.29 169.24 341.01 170.76 344.46 173.91 345.45 174.53 349.31 150.77 349.31"/><polygon class="cls-40" points="173.6 349.31 174.06 346.64 177.04 345.84 180.81 348.34 182.99 346.6 183.05 342.44 185.24 342.08 187.28 343.6 191.18 343.01 191.48 343.73 194.36 344.62 197.73 349.31 173.6 349.31"/><polygon class="cls-39" points="197.21 348.61 188.54 347.83 191.12 345.51 194.36 344.62 197.21 348.61"/><path class="cls-41" d="M157.67,294.26c-3.62-2.48,4-5.65,4-7.74S147.91,281.77,148,276s10.54-9.31,10.73-11.41c.13-1.42-4.81-2.57-4.76-5.05,0-1.69,3.41-1.69,3.41-1.69s-2.33.56-2.35,1.59c0,1.39,5.85,1.49,7.57,5.15s-5.13,8.83-5.19,11.5,10.47,6.15,10.32,9.62C167.56,290.49,157.15,290.49,157.67,294.26Z"/><path class="cls-41" d="M158.28,273.64s-.87,2.74,4,5.91,5.52,6.41,4.9,7.9a3.51,3.51,0,0,0,.56-3.17c-.63-1.89-2.77-2.94-5.36-5.12A8,8,0,0,1,159.5,272Z"/><path class="cls-41" d="M148.89,272.15a11.71,11.71,0,0,1,4.94-4.26c2.9-1.56,3.65-2.52,3.78-3.33-.35.62-1.3,1.69-3.87,2.58C148.62,268.93,148.89,272.15,148.89,272.15Z"/><path class="cls-41" d="M158.42,261.34c-1.71-.36-2.54-1.31-2.64-2.15s.48-1.48,1.47-2.08c1.23-.75-.67-1.35-.58-2.64.34,1,3,1.7,2,2.91-.44.49-1.35,1.29-1.33,1.88A3.15,3.15,0,0,0,158.42,261.34Z"/><path class="cls-42" d="M151.33,272.17l-.31.41a11.5,11.5,0,0,0-.75,1.11,3.33,3.33,0,0,0-.5,1.7,2.65,2.65,0,0,0,.2.95,3.83,3.83,0,0,0,.52.89,9.25,9.25,0,0,0,1.5,1.5,13.57,13.57,0,0,0,1.52,1.1c.48.29.88.52,1.18.66l.46.23a8,8,0,0,1-1.79-.61,9.34,9.34,0,0,1-3.32-2.54,4.34,4.34,0,0,1-.58-1,2.92,2.92,0,0,1-.19-1.16,3.54,3.54,0,0,1,.74-1.87,8.26,8.26,0,0,1,.93-1C151.18,272.28,151.33,272.17,151.33,272.17Z"/><path class="cls-42" d="M152.05,276.9l.5.41a14.84,14.84,0,0,0,1.35,1,23,23,0,0,0,2,1.2c.76.41,1.58.82,2.41,1.23a23.43,23.43,0,0,1,4.45,2.55,4.15,4.15,0,0,1,1.06,1.35,2.26,2.26,0,0,1,.16.45l0,.16a3.13,3.13,0,0,0-.3-.56,4.33,4.33,0,0,0-1.16-1.15,12.71,12.71,0,0,0-2-1.12l-2.46-1.17c-.83-.42-1.66-.85-2.41-1.31a17.89,17.89,0,0,1-2-1.37,12.56,12.56,0,0,1-1.24-1.16Z"/><path class="cls-42" d="M156.4,277.2a2.58,2.58,0,0,1-.21-.36,3,3,0,0,1-.26-1.06,3.85,3.85,0,0,1,.21-1.56,4.72,4.72,0,0,1,.35-.81,7.48,7.48,0,0,1,.48-.76,31.17,31.17,0,0,1,2.13-2.44c.29-.32.54-.59.69-.8l.24-.32a6,6,0,0,1-.67,1.32c-.48.76-1.27,1.64-1.93,2.56a8.27,8.27,0,0,0-.83,1.43,4.83,4.83,0,0,0-.35,1.38,3.25,3.25,0,0,0,.05,1A3.83,3.83,0,0,0,156.4,277.2Z"/><path class="cls-42" d="M159.16,262.85a1.48,1.48,0,0,1,.25.21,2.34,2.34,0,0,1,.51.72,3.28,3.28,0,0,1,.29,1.24,3.76,3.76,0,0,1-.25,1.45,4,4,0,0,1-.33.65,5,5,0,0,1-.41.58,5.32,5.32,0,0,1-.91.84,5.72,5.72,0,0,1-1,.6l.23-.24c.15-.13.35-.35.58-.6a9.34,9.34,0,0,0,.73-.91c.12-.17.23-.36.34-.54a4.75,4.75,0,0,0,.28-.6,4.11,4.11,0,0,0,.27-1.24,4.39,4.39,0,0,0-.09-1.12,3,3,0,0,0-.3-.76A2.43,2.43,0,0,0,159.16,262.85Z"/><path class="cls-42" d="M160,290.35s.54-.34,1.38-.79c.42-.23.91-.48,1.45-.74s1.12-.51,1.63-.82a3.1,3.1,0,0,0,1.21-1.17,1.77,1.77,0,0,0,.18-1.4,3.32,3.32,0,0,0-.53-1l-.26-.34a3.08,3.08,0,0,1,.35.27,2.93,2.93,0,0,1,.74.93,1.76,1.76,0,0,1,.18.81,2.13,2.13,0,0,1-.21.92,3.4,3.4,0,0,1-1.37,1.44,13.55,13.55,0,0,1-1.72.78c-.55.23-1.07.42-1.52.58C160.56,290.17,160,290.35,160,290.35Z"/><ellipse class="cls-13" cx="380.56" cy="336.96" rx="156.75" ry="7.51"/><path class="cls-43" d="M305.71,216.34S337,222.61,366,222.61s50.5-6.8,50.5-6.8L506,337.23H379.58l-51.22-71.64Z"/><path class="cls-44" d="M430.8,307.5c-58.66,5-85.78-27.22-85.78-27.22l.79,9.71,33.77,47.24H506l-38.88-52.74S464.47,304.63,430.8,307.5Z"/><path class="cls-44" d="M305.71,216.34l22.65,49.25,51.22,71.64H415.4c-43.77-27.16-75.47-87.57-79.52-116.39-7.27-.76-14.7-1.86-20.37-2.78C309.67,217.11,305.71,216.34,305.71,216.34Z"/><path class="cls-45" d="M378.06,315.47s15.31,10.74,38.95,12.35C417,327.82,389.88,335.34,378.06,315.47Z"/><path class="cls-45" d="M481,309.16s-1.12,14.1-22.24,19.11C458.75,328.27,487.12,329.17,481,309.16Z"/><polygon class="cls-31" points="376 332.21 379.58 337.23 506.01 337.23 502.31 332.21 376 332.21"/><path class="cls-31" d="M519.59,333.8a.5.5,0,0,1-.39-.18L416.09,216.14a.51.51,0,0,1,0-.72.53.53,0,0,1,.73.05L520,333a.5.5,0,0,1-.05.72A.51.51,0,0,1,519.59,333.8Z"/><path class="cls-38" d="M415.82,216A187.45,187.45,0,0,1,366,222.61c-29,0-60.26-6.27-60.26-6.27l.16.36C355.94,258.43,436.17,246.61,415.82,216Z"/><polygon class="cls-31" points="417.37 257.71 372.24 257.71 396.29 292.37 441.41 292.37 417.37 257.71"/><polygon class="cls-35" points="415.9 260.13 377.08 260.13 397.76 289.94 436.58 289.94 415.9 260.13"/><polygon class="cls-36" points="305.71 216.34 385.31 337.23 239 337.23 305.71 216.34"/><path class="cls-22" d="M339.44,267.57l-33.73-51.23L258.77,301.4c14.89,3.26,33.62.5,51.34-8.86A84.66,84.66,0,0,0,339.44,267.57Z"/><path class="cls-46" d="M305.71,216.34a57.55,57.55,0,0,1,.49,12.48c-1.5,21.93-8.58,71.66-33.35,108.41h-4.66l-12.89-5.65S293.71,274.9,305.71,216.34Z"/><path class="cls-46" d="M305.71,216.34A77.6,77.6,0,0,0,306.2,229c2.77,22.92,12.17,75.73,36.67,108.26h7.25l14-6.72S329.17,285.92,305.71,216.34Z"/><polygon class="cls-35" points="241.76 332.22 239 337.23 385.42 337.23 382.06 332.22 241.76 332.22"/><path class="cls-31" d="M256.72,332.22l11.34,5h4.81c1.11-1.65,2.16-3.32,3.2-5Z"/><path class="cls-31" d="M339.34,332.22c1.14,1.71,2.31,3.39,3.53,5h7.25l10.41-5Z"/><polygon class="cls-31" points="272.85 337.23 343.05 337.23 306.2 228.82 272.85 337.23"/><path class="cls-32" d="M327.29,337.23h15.76L306.2,228.82l-14.41,46.84C307.23,284.57,325.79,310.65,327.29,337.23Z"/><rect class="cls-28" x="304.94" y="227.22" width="2.87" height="110"/><path class="cls-47" d="M304.94,227.22v110h.63c-.35-27.81-.23-67.42,0-110Z"/><path class="cls-30" d="M306.82,227.22c-.39,37.78-.43,74.55,0,110h1v-110Z"/><path class="cls-28" d="M525.89,337.23h-6.27l-.89-7.17s4.51-1.43,8,0Z"/><path class="cls-47" d="M518.73,330.06l.89,7.17h1a14.6,14.6,0,0,0-.84-7.43C519.13,329.94,518.73,330.06,518.73,330.06Z"/><path class="cls-30" d="M522.25,329.46a9.62,9.62,0,0,1,2.86.6,16.46,16.46,0,0,0-.43,7.17h1.21l.89-7.17A10.55,10.55,0,0,0,522.25,329.46Z"/><path class="cls-31" d="M519.26,335.49a.51.51,0,0,1,0-1,19.45,19.45,0,0,0,7.13-1.89.53.53,0,0,1,.69.24.51.51,0,0,1-.24.68,20.47,20.47,0,0,1-7.51,2Z"/><path class="cls-31" d="M526.34,335.59h0a18.92,18.92,0,0,1-7.78-1.92.51.51,0,0,1-.25-.68.53.53,0,0,1,.68-.25,18,18,0,0,0,7.37,1.83.51.51,0,0,1,0,1Z"/><path class="cls-31" d="M417.92,264.91a4.17,4.17,0,0,0,3-2.09l-3.58-5.11H372.24l5.69,8.15c5.8,1,12.24-2.72,20.24-3.23C405.28,262.18,412.69,266,417.92,264.91Z"/><path class="cls-36" d="M373.35,249.42c6.8-1.17,19.81,2.34,23.44,2.34s13.56-2.65,17.95-2.73c5.15-.1,7,3.61,7.06,5.66s-.37,5.12-3.82,5.87c-5.44,1.17-17.56-1-21.86-.88-3.08.07-14.51,3.51-20.81,1.66Z"/><path class="cls-48" d="M419.11,259.27c-5.74,1.24-17.22-3.06-21.75-2.82-7,.37-15.67,5.07-22.22,3.9l.17,1c6.3,1.85,17.73-1.59,20.81-1.66,4.3-.1,16.42,2.05,21.86.88a4.44,4.44,0,0,0,3-2.09A5,5,0,0,1,419.11,259.27Z"/><path class="cls-49" d="M379.32,253.91a1.86,1.86,0,0,0-.38-.73c-.08-.18-.16-.36-.25-.54-1.37-2.67-4.13-3.94-6.17-2.85s-2.57,4.15-1.2,6.81l0,0H370s1.62,4.3,5.35,4.69S380.37,257.63,379.32,253.91Z"/><path class="cls-27" d="M395.62,260.49a.43.43,0,0,1-.31-.13.44.44,0,0,1,0-.63,6.86,6.86,0,0,0,1.51-4.38,7.44,7.44,0,0,0-1.07-3.71.45.45,0,0,1,.14-.62.46.46,0,0,1,.62.13,8.42,8.42,0,0,1,1.2,4.22,7.61,7.61,0,0,1-1.76,5A.44.44,0,0,1,395.62,260.49Z"/><path class="cls-27" d="M399.06,260.71a.46.46,0,0,1-.29-.1.45.45,0,0,1-.06-.63,5.77,5.77,0,0,0,.77-4.82,5,5,0,0,0-2.74-3.42.45.45,0,1,1,.34-.83,5.9,5.9,0,0,1,3.27,4.05,6.69,6.69,0,0,1-1,5.59A.46.46,0,0,1,399.06,260.71Z"/><path class="cls-46" d="M376.11,251.92a2.67,2.67,0,0,0-2.95-.23c-1.12.6-1.28,2.32-.78,3.56a2.25,2.25,0,0,0,2.88,1.52.4.4,0,0,0,.26-.51.39.39,0,0,0-.5-.27,1.5,1.5,0,0,1-1.9-1.05c-.36-.89-.28-2.15.41-2.52a1.88,1.88,0,0,1,2.12.17,5.61,5.61,0,0,1,1.92,4.78,2.14,2.14,0,0,1-1.28,1.85c-1.27.47-3.64-.06-5-2.57h-.9a5.66,5.66,0,0,0,5,3.54,3.37,3.37,0,0,0,1.19-.2,2.87,2.87,0,0,0,1.79-2.51A6.43,6.43,0,0,0,376.11,251.92Z"/><path class="cls-38" d="M379.79,250.49c-1.39,1.3,2.39,3,6.21,3.42s7.35-.19,7.64-1S380.84,249.52,379.79,250.49Z"/><path class="cls-38" d="M403.38,252c-.29,1.37,5.25,1.76,10.4.88,3.15-.54,3.82-1.66,2.87-2.44s-4.49-.3-7.93.19S403.46,251.58,403.38,252Z"/><path class="cls-34" d="M415.88,267.41c-4.91-.69-10.71-2.8-16.34-2.45-5.24.34-9.86,2-14.07,2.93l9,12.49C406.55,280.73,416.54,274.92,415.88,267.41Z"/><path class="cls-50" d="M346.94,228.49s16.39,11,40.54,9.21c18.24-1.34,22.1-12,22.1-12a55.16,55.16,0,0,1-23.61,6.9A121.72,121.72,0,0,1,346.94,228.49Z"/><path class="cls-50" d="M382.28,228.45c7,1,14.51-1,20.74-4.18.68-.34.08-1.36-.6-1-6.57,3.24-12.86,4.13-20.06,4.63-.31,0-.43.53-.08.58Z"/><path class="cls-45" d="M393,312.67s21.9,16.1,52.52,11.63c23.13-3.37,27.06-20.71,27.06-20.71s-11.9,11.29-29.42,13.57A119.18,119.18,0,0,1,393,312.67Z"/><polygon class="cls-43" points="301.45 252.07 310.74 252.07 305.71 232.19 301.45 252.07"/><path class="cls-38" d="M305.71,216.34V233.4c2.76,22.92,12.66,71.3,37.16,103.83,3.65-3.25,7.79-6,13.7-7C356.57,330.24,322.1,279.2,305.71,216.34Z"/><path class="cls-38" d="M305.71,216.34a58.4,58.4,0,0,1,0,17.06c-1.5,21.93-8.09,67.08-32.86,103.83a39.89,39.89,0,0,0-14.33-6.81S294.79,277.5,305.71,216.34Z"/><path class="cls-51" d="M291.66,299.86a247.5,247.5,0,0,0,14-66.46,58.4,58.4,0,0,0,0-17.06c-6,33.79-19.8,65-30.92,86.28A78.37,78.37,0,0,0,291.66,299.86Z"/><path class="cls-51" d="M318.11,287.79a88.63,88.63,0,0,0,10.66-8.29,379.39,379.39,0,0,1-23.06-63.16V233.4A285.62,285.62,0,0,0,318.11,287.79Z"/><path class="cls-49" d="M356.57,330.24a423.2,423.2,0,0,1-43.19-88.68c5.33,18.83,18.88,61.15,39.9,89.48A26,26,0,0,1,356.57,330.24Z"/><path class="cls-49" d="M301,237.15c-14.12,51.87-42.48,93.27-42.48,93.27,1.12.29,2.23.62,3.34,1C267.16,322.78,290,283.82,301,237.15Z"/><polygon class="cls-35" points="301.45 222.79 310.74 222.79 305.71 216.34 301.45 222.79"/><path class="cls-31" d="M228.88,333.08a.6.6,0,0,1-.28-.08.51.51,0,0,1-.14-.71l76.82-116.23a.52.52,0,0,1,.86.57L229.31,332.85A.51.51,0,0,1,228.88,333.08Z"/><path class="cls-31" d="M396.77,333.44a.51.51,0,0,1-.4-.2L305.31,216.66a.51.51,0,0,1,.08-.72.52.52,0,0,1,.72.09l91.07,116.58a.52.52,0,0,1-.09.72A.54.54,0,0,1,396.77,333.44Z"/><path class="cls-28" d="M397.31,337.23l-1.12-9.14s5.18-.18,8.18,1.43l-.79,7.71Z"/><path class="cls-47" d="M397.13,328.09h-.94l1.12,9.14h.9a17.87,17.87,0,0,0-1.12-9.14Z"/><path class="cls-30" d="M396.19,328.09v0a15.79,15.79,0,0,1,6.07,1.39,26,26,0,0,0-.57,7.71h1.88l.79-7.71C401.37,327.91,396.19,328.09,396.19,328.09Z"/><path class="cls-28" d="M230.67,337.23l-.41-7.17s-4.27-1.43-7.84.18l1.7,7Z"/><path class="cls-47" d="M222.42,330.24l1.7,7H225a14,14,0,0,0-1.7-7.3Z"/><path class="cls-30" d="M230.27,330.06a13,13,0,0,0-5.6-.45,11.94,11.94,0,0,1,3.43.58,21.75,21.75,0,0,0,.38,7h2.19Z"/><path class="cls-31" d="M398.76,332.72a17.53,17.53,0,0,1-2.41-.16.51.51,0,1,1,.13-1,17.92,17.92,0,0,0,7.83-.73.51.51,0,1,1,.32,1A18.87,18.87,0,0,1,398.76,332.72Z"/><path class="cls-31" d="M403.89,335.68c-1,0-4.85-.11-7.55-1.68a.51.51,0,1,1,.51-.89c2.83,1.65,7.21,1.55,7.25,1.54a.52.52,0,0,1,.53.5.53.53,0,0,1-.5.53Z"/><path class="cls-31" d="M396.78,335.78a.51.51,0,0,1-.5-.38.52.52,0,0,1,.37-.63l7.43-1.95a.52.52,0,0,1,.63.37.51.51,0,0,1-.37.62l-7.43,1.95Z"/><path class="cls-31" d="M223.15,335.31a.5.5,0,0,1-.48-.34.5.5,0,0,1,.31-.65l7.26-2.57a.51.51,0,0,1,.34,1l-7.26,2.56Z"/><path class="cls-31" d="M230.47,335.07h-.11l-7.57-1.62a.51.51,0,0,1,.22-1l7.57,1.62a.51.51,0,0,1,.39.61A.5.5,0,0,1,230.47,335.07Z"/><path class="cls-13" d="M412.37,347.94c0,1.57,18,2.84,40.22,2.84s40.21-1.27,40.21-2.84-18-2.84-40.21-2.84S412.37,346.37,412.37,347.94Z"/><g class="cls-52"><circle class="cls-16" cx="422.29" cy="328.26" r="24.32" transform="translate(-30.13 613.58) rotate(-70.1)"/></g><rect class="cls-31" x="414.14" y="338.4" width="17.36" height="7.25"/><rect class="cls-53" x="415.49" y="339.16" width="4.42" height="6.07"/><polygon class="cls-32" points="422.81 338.4 414.13 338.4 414.13 339.65 422.81 339.65 422.81 345.52 431.49 345.52 431.49 339.65 431.49 338.4 422.81 338.4"/><path class="cls-31" d="M413.46,345h18.71a1,1,0,0,1,1,1v2.11a0,0,0,0,1,0,0H412.45a0,0,0,0,1,0,0V346A1,1,0,0,1,413.46,345Z"/><path class="cls-54" d="M425.19,342.1a2.14,2.14,0,1,1-2.13-2.14A2.13,2.13,0,0,1,425.19,342.1Z"/><rect class="cls-41" x="414.53" y="320.12" width="16.57" height="16.05"/><rect class="cls-55" x="416.87" y="320.44" width="4.17" height="15.42"/><rect class="cls-56" x="424.71" y="320.44" width="4.93" height="15.42"/><rect class="cls-56" x="414.85" y="320.44" width="0.63" height="15.42"/><rect class="cls-56" x="430.21" y="320.44" width="0.63" height="15.42"/><rect class="cls-31" x="414.25" y="319.61" width="0.6" height="16.43"/><rect class="cls-31" x="430.78" y="319.61" width="0.6" height="16.43"/><path class="cls-56" d="M431.38,326.76s-1.38-3.29-8.52-3.29-8.61,3.29-8.61,3.29v-6.39h17.13Z"/><path class="cls-31" d="M430.4,314.4H415.23l.17-1.69a4.06,4.06,0,0,1,3.9-3.7h7a4.07,4.07,0,0,1,3.9,3.7Z"/><path class="cls-32" d="M432.12,313.11a.45.45,0,0,1-.45-.45c0-9.12-.77-12.56-8.94-12.56S414,304.84,414,312.66a.45.45,0,0,1-.9,0c0-7.88.7-13.47,9.68-13.47s9.85,4.11,9.85,13.47A.46.46,0,0,1,432.12,313.11Z"/><rect class="cls-31" x="412.45" y="314.35" width="20.73" height="3.12"/><rect class="cls-31" x="412.45" y="335.67" width="20.73" height="3.12" rx="1.07"/><rect class="cls-53" x="414.78" y="335.67" width="5.73" height="3.03"/><rect class="cls-53" x="414.78" y="345.19" width="5.73" height="2.78"/><path class="cls-31" d="M436,320.7c0,.32-26.45.32-26.45,0l2.86-3.29h20.73Z"/><path class="cls-32" d="M430.23,312.71a4.07,4.07,0,0,0-3.9-3.7h-1.94a4.2,4.2,0,0,1,1.79,3l.17,1.69H415.3l-.07.67H430.4Z"/><polygon class="cls-32" points="433.18 317.42 422.85 317.42 424.86 320.7 436.04 320.7 433.18 317.42"/><polygon class="cls-32" points="422.86 314.35 422.86 316.64 412.45 316.64 412.45 317.47 422.86 317.47 433.18 317.47 433.18 316.64 433.18 314.35 422.86 314.35"/><path class="cls-34" d="M416.12,313.14h4.32s.19-3.45-1.58-3.45S416.12,311.78,416.12,313.14Z"/><path class="cls-34" d="M411.88,319.93h8.31a3.94,3.94,0,0,0-3.76-2.05C413,317.84,411.88,319.93,411.88,319.93Z"/><path class="cls-31" d="M413,312.22h1.07a.55.55,0,0,1,.55.55v2.61a0,0,0,0,1,0,0h-2.18a0,0,0,0,1,0,0v-2.61A.55.55,0,0,1,413,312.22Z"/><path class="cls-32" d="M431.55,312.22h1.07a.55.55,0,0,1,.55.55v2.61a0,0,0,0,1,0,0H431a0,0,0,0,1,0,0v-2.61A.55.55,0,0,1,431.55,312.22Z"/><path class="cls-34" d="M418,315.52c0,.46-1.66.56-2.94.56s-1.77-.25-1.77-.56.29-.55,1.77-.55S418,315.06,418,315.52Z"/><path class="cls-34" d="M420.22,315.52c0,.24-.46.38-.91.38s-.73-.17-.73-.38.22-.38.73-.38S420.22,315.29,420.22,315.52Z"/><path class="cls-32" d="M435.68,320.47H409.94a.36.36,0,0,0-.35.36h0a.36.36,0,0,0,.35.36h25.74a.36.36,0,0,0,.36-.36h0A.36.36,0,0,0,435.68,320.47Z"/><path class="cls-34" d="M432.1,335.67H413.52a1.07,1.07,0,0,0-1.07,1.07v.44a1.07,1.07,0,0,1,1.07-1.07H432.1a1.07,1.07,0,0,1,1.08,1.07v-.44A1.07,1.07,0,0,0,432.1,335.67Z"/><path class="cls-32" d="M432.1,335.67h-6.6a1,1,0,0,1,.09.44v1a1.07,1.07,0,0,1-1.07,1.07h-12a1.07,1.07,0,0,0,1,.63H432.1a1.07,1.07,0,0,0,1.08-1.07v-1A1.07,1.07,0,0,0,432.1,335.67Z"/><path class="cls-34" d="M432.17,345H413.46a1,1,0,0,0-1,1v.42a1,1,0,0,1,1-1h18.71a1,1,0,0,1,1,1V346A1,1,0,0,0,432.17,345Z"/><path class="cls-32" d="M432.17,345h-9.48a1,1,0,0,1,1,1v1.52H412.45v.59h20.73V346A1,1,0,0,0,432.17,345Z"/><circle class="cls-57" cx="422.79" cy="341.84" r="1.88"/><circle class="cls-58" cx="422.79" cy="341.84" r="1.37"/><path class="cls-59" d="M421.54,341.94a1.37,1.37,0,0,1,1.37-1.37,1.35,1.35,0,0,1,.86.31,1.37,1.37,0,0,0-2.35,1,1.36,1.36,0,0,0,.51,1.06A1.39,1.39,0,0,1,421.54,341.94Z"/><path class="cls-60" d="M437.42,328a.73.73,0,0,1-.72.73.73.73,0,0,1,0-1.46A.73.73,0,0,1,437.42,328Z"/><path class="cls-60" d="M410.82,326.25a.73.73,0,1,1-.73-.72A.72.72,0,0,1,410.82,326.25Z"/><circle class="cls-60" cx="408.43" cy="336.51" r="0.52"/><circle class="cls-60" cx="433.65" cy="333.74" r="0.52"/><path class="cls-60" d="M408.22,323.28a.51.51,0,0,1-.52.51.52.52,0,1,1,.52-.51Z"/></g></g></g></svg>