<?xml version="1.0" encoding="utf-8"?>
<!-- Generator: Adobe Illustrator 24.0.1, SVG Export Plug-In . SVG Version: 6.00 Build 0)  -->
<svg version="1.1" id="Capa_1" xmlns="http://www.w3.org/2000/svg" xmlns:xlink="http://www.w3.org/1999/xlink" x="0px" y="0px"
	 viewBox="0 0 1022.3 1031.7" enable-background="new 0 0 1022.3 1031.7" xml:space="preserve">
<circle fill="#092F43" cx="509.5" cy="512.7" r="492.9"/>
<path fill="#E7CE79" d="M635.4,319.1c20.7-25.1,41.2-51.1,61.8-34.8c20.6,16.2,50.9,132,66,143.9c9.7,7.6,6.5,33.5,19.5,45.5
	c13,11.9,35.7-3.2,42.2,17.3c6.5,20.6-2.2,40,21.6,41.1c23.8,1.1,52.1-2.9,63.1,4.1c21.4,13.6,24,21,28,24
	c9.9,7.4-39.4,38.5-39.4,38.5c-103.7-25.5-214.1-80.7-214.1-80.7l-40-125.5L635.4,319.1z"/>
<path fill="#183F72" d="M111.7,592.3c46.5-15.2,141.8-210.6,198.1-233.3c19.5-7.6,64.9,58.4,74.7,74.7c7.6,10.8-5.4,22.7-21.6,22.7
	c-32.5-1.1-100,114.8-107.6,141.8C200.3,599.3,238.3,592.3,111.7,592.3z"/>
<path fill="#E7CE79" d="M266.4,598.2l82.3-114.8l45.5-5.4c0,0,63.9-37.9,46.5-37.9c-17.3,0-40-41.1-62.8-72.5
	c-22.7-31.4-55.2-15.2-70.5-7.6c6.6-4.3,16.9,0.6,32.3,15.5c10,10.6,46.8,53.9,45.7,67.9c-1.1,8.7-17.3,13-22.7,13
	c-22.7-1.1-76.2,30.9-132.3,141.8H266.4z"/>
<path fill="#183F72" d="M424.4,598.2L593.4,372c0,0-18.4-20.6-36.8-29.2c-18.4-8.7-28.1,2.2-34.6,7.6
	c-19.5,15.1-60.6,76.8-121.2,115.7c-17.3,9.7-33.5,2.2-60.6,11.9c-27,9.7-76.9,112.6-98.6,120.2
	C296.9,597.1,381.8,599.3,424.4,598.2z"/>
<path fill="#E7CE79" d="M506.7,365.5c22.7-7.6,36.8-3.2,45.5,19.5c4.3,17.3-147.6,196.1-177.1,213.3l51.7,0.2l171.2-212
	c7.4-44.7-34.4-49.1-52.3-49.1C524.5,337.3,506.7,365.5,506.7,365.5z"/>
<path fill="#183F72" d="M416.5,596c0,0,200.7-261.9,220.2-280.3c19.5-18.4,53-1.1,64.9,40c11.9,41.1,38.9,142.8,57.3,142.8
	s26-8.7,41.1,20.6c15.1,29.2,16.2,42.2,32.5,44.4s35.7,33.5,68.2,32.5C523,596,638.4,594.8,416.5,596z"/>
<g>
	<defs>
		<path id="SVGID_1_" d="M555.7,272.7c-64.8,5.1-67.7-52.4-42.2-75.7h-32.8l-24.7,38.6l18.9,36.4l59.2,34l44.2-38.3L555.7,272.7z"/>
	</defs>
	<clipPath id="SVGID_2_">
		<use xlink:href="#SVGID_1_"  overflow="visible"/>
	</clipPath>
	<circle clip-path="url(#SVGID_2_)" fill="#E7CE79" cx="526.4" cy="242.5" r="46.2"/>
</g>
<g>
	<g>
		<path fill="#FBE96C" d="M405.5,726.5c-2.8,0-5.5-0.5-8-1.6c-2.5-1.1-4.6-2.6-6.5-4.5c-1.8-1.9-3.3-4.2-4.3-6.7
			c-1-2.6-1.6-5.3-1.6-8.3c0-3,0.5-5.7,1.6-8.3c1-2.6,2.5-4.8,4.3-6.7c1.8-1.9,4-3.4,6.5-4.5c2.5-1.1,5.1-1.6,8-1.6
			c2.7,0,5,0.4,7,1.1c2,0.7,3.9,1.9,5.9,3.5c0.3,0.2,0.5,0.4,0.7,0.7c0.2,0.2,0.3,0.5,0.3,0.7c0.1,0.2,0.1,0.5,0.1,0.8
			c0,0.7-0.2,1.2-0.7,1.7c-0.5,0.4-1,0.7-1.7,0.7c-0.7,0.1-1.3-0.2-2-0.7c-1.3-1.1-2.6-2-4-2.6c-1.4-0.6-3.2-0.9-5.5-0.9
			c-2.1,0-4,0.4-5.9,1.3c-1.8,0.8-3.4,2-4.8,3.5c-1.4,1.5-2.5,3.2-3.2,5.1c-0.8,2-1.2,4-1.2,6.3c0,2.3,0.4,4.4,1.2,6.3
			c0.8,2,1.9,3.7,3.2,5.1c1.4,1.5,3,2.6,4.8,3.5c1.8,0.8,3.8,1.2,5.9,1.2c1.8,0,3.5-0.3,5.1-0.9c1.6-0.6,3.1-1.5,4.6-2.6
			c0.6-0.5,1.3-0.7,1.9-0.6c0.6,0.1,1.1,0.3,1.6,0.7c0.4,0.4,0.6,1,0.6,1.8c0,0.4-0.1,0.7-0.2,1c-0.1,0.3-0.4,0.6-0.6,0.9
			c-1.9,1.5-3.9,2.7-6.1,3.4C410.1,726.1,407.8,726.5,405.5,726.5z"/>
		<path fill="#FBE96C" d="M426.4,726c-1,0-1.7-0.4-2.3-1.3c-0.5-0.8-0.6-1.7-0.2-2.7l14.8-35.4c0.5-1.2,1.4-1.8,2.6-1.8
			c1.3,0,2.1,0.6,2.6,1.8l14.9,35.5c0.4,1,0.3,1.9-0.2,2.7c-0.5,0.8-1.3,1.2-2.3,1.2c-0.5,0-1-0.1-1.5-0.4c-0.5-0.3-0.8-0.7-1-1.2
			l-13.1-32.5h1.5l-13.3,32.5c-0.2,0.6-0.6,1-1.1,1.3C427.3,725.9,426.8,726,426.4,726z M429.1,716.9l2.1-4.5h20.7l2.1,4.5H429.1z"
			/>
		<path fill="#FBE96C" d="M467.8,726c-0.8,0-1.4-0.3-2-0.8c-0.5-0.5-0.8-1.2-0.8-2v-35.7c0-0.8,0.3-1.5,0.8-2c0.5-0.5,1.2-0.8,2-0.8
			c1.1,0,1.9,0.5,2.4,1.5l16.5,33.1h-1.7l16.1-33.1c0.6-1,1.4-1.5,2.4-1.5c0.8,0,1.4,0.3,2,0.8c0.5,0.5,0.8,1.2,0.8,2v35.7
			c0,0.8-0.3,1.4-0.8,2c-0.5,0.5-1.2,0.8-1.9,0.8c-0.8,0-1.4-0.3-2-0.8c-0.5-0.5-0.8-1.2-0.8-2v-28.1l1.1-0.3l-13.8,28.2
			c-0.6,0.9-1.4,1.4-2.4,1.4c-1.2,0-2-0.5-2.5-1.6l-13.7-27.4l1.1-0.3v28.1c0,0.8-0.3,1.4-0.8,2C469.3,725.7,468.6,726,467.8,726z"
			/>
		<path fill="#FBE96C" d="M519.6,726c-0.8,0-1.4-0.3-2-0.8c-0.5-0.5-0.8-1.2-0.8-2v-35.7c0-0.8,0.3-1.5,0.8-2c0.5-0.5,1.2-0.8,2-0.8
			h10.6c2.6,0,5,0.6,7,1.7s3.6,2.8,4.8,4.8c1.1,2.1,1.7,4.4,1.7,7.1c0,2.6-0.6,4.9-1.7,6.9c-1.1,2-2.7,3.6-4.8,4.7s-4.4,1.7-7,1.7
			h-7.8v11.6c0,0.8-0.3,1.4-0.8,2C521.1,725.7,520.5,726,519.6,726z M522.4,706.6h7.8c1.6,0,3-0.4,4.3-1.1c1.2-0.7,2.2-1.7,2.9-2.9
			s1.1-2.6,1.1-4.2c0-1.7-0.4-3.2-1.1-4.5c-0.7-1.3-1.7-2.3-2.9-3c-1.2-0.7-2.7-1.1-4.3-1.1h-7.8V706.6z"/>
		<path fill="#FBE96C" d="M552.5,726c-0.8,0-1.4-0.3-2-0.8c-0.5-0.5-0.8-1.2-0.8-2v-35.7c0-0.8,0.3-1.5,0.8-2c0.5-0.5,1.2-0.8,2-0.8
			c0.8,0,1.5,0.3,2,0.8c0.5,0.5,0.8,1.2,0.8,2v35.7c0,0.8-0.3,1.4-0.8,2C554,725.7,553.3,726,552.5,726z"/>
		<path fill="#FBE96C" d="M568.5,726c-0.8,0-1.4-0.3-1.9-0.8c-0.5-0.5-0.8-1.2-0.8-2v-35.7c0-0.8,0.3-1.5,0.8-2
			c0.5-0.5,1.2-0.8,1.9-0.8c0.8,0,1.5,0.3,2.1,1l23,30.6v-28.9c0-0.8,0.3-1.5,0.8-2c0.5-0.5,1.2-0.8,2-0.8c0.8,0,1.5,0.3,2,0.8
			c0.5,0.5,0.7,1.2,0.7,2v35.7c0,0.8-0.2,1.4-0.7,2c-0.5,0.5-1.1,0.8-2,0.8c-0.4,0-0.7-0.1-1.1-0.2c-0.4-0.2-0.7-0.4-1-0.7l-23-30.6
			v28.8c0,0.8-0.3,1.4-0.8,2C570,725.7,569.3,726,568.5,726z"/>
		<path fill="#FBE96C" d="M628.1,726.5c-2.8,0-5.5-0.5-8-1.6c-2.5-1.1-4.6-2.6-6.5-4.5c-1.8-1.9-3.3-4.2-4.3-6.7
			c-1-2.6-1.6-5.3-1.6-8.3c0-3,0.5-5.7,1.6-8.3c1-2.6,2.5-4.8,4.3-6.7c1.8-1.9,4-3.4,6.5-4.5c2.5-1.1,5.1-1.6,8-1.6
			c2.7,0,5,0.4,7,1.1c2,0.7,3.9,1.9,5.9,3.5c0.3,0.2,0.5,0.4,0.7,0.7c0.2,0.2,0.3,0.5,0.3,0.7c0.1,0.2,0.1,0.5,0.1,0.8
			c0,0.7-0.2,1.2-0.7,1.7c-0.5,0.5-1.1,0.7-1.7,0.7c-0.7,0-1.3-0.2-1.9-0.7c-1.3-1.1-2.6-2-4-2.6c-1.4-0.6-3.2-0.9-5.5-0.9
			c-2.1,0-4,0.4-5.9,1.3c-1.8,0.8-3.4,2-4.8,3.5c-1.4,1.5-2.5,3.2-3.2,5.1s-1.2,4-1.2,6.3c0,2.3,0.4,4.4,1.2,6.3
			c0.8,2,1.9,3.7,3.2,5.1c1.4,1.5,3,2.6,4.8,3.5c1.8,0.8,3.8,1.2,5.9,1.2c1.8,0,3.5-0.3,5.1-0.9c1.6-0.6,3.1-1.5,4.6-2.6
			c0.6-0.5,1.3-0.7,1.9-0.6c0.6,0.1,1.1,0.3,1.6,0.7c0.4,0.4,0.6,1,0.6,1.8c0,0.4-0.1,0.7-0.2,1c-0.1,0.3-0.3,0.6-0.7,0.9
			c-1.9,1.5-3.9,2.7-6.1,3.5C632.8,726.2,630.5,726.5,628.1,726.5z M641.9,720l-5.3-1.1v-9.4h-7.3c-0.8,0-1.4-0.2-2-0.7
			c-0.5-0.5-0.8-1-0.8-1.7c0-0.7,0.3-1.3,0.8-1.7c0.5-0.5,1.2-0.7,2-0.7h9.9c0.8,0,1.5,0.3,2,0.8c0.5,0.5,0.7,1.2,0.7,2V720z"/>
	</g>
</g>
<path fill="#E7CE79" d="M877,429.9c6.7,0,9.7-5.6,9.7-9.3c0,3.7,1.5,8.6,9.7,9.7c-3.4,0-9.7,3.4-9.7,9.3
	C886.7,433.3,880,429.9,877,429.9z"/>
<path fill="#E7CE79" d="M333,288.8c6.7,0,9.7-5.6,9.7-9.3c0,3.7,1.5,8.6,9.7,9.7c-3.4,0-9.7,3.4-9.7,9.3
	C342.7,292.1,336,288.8,333,288.8z"/>
<path fill="#E7CE79" d="M224.6,362.8c3.2,0,4.6-1.8,4.6-3c0,1.2,0.7,2.7,4.6,3.1c-1.6,0-4.6,1.1-4.6,3
	C229.2,363.9,226,362.8,224.6,362.8z"/>
<path fill="#E7CE79" d="M161.8,463.8c3.2,0,4.6-2.7,4.6-4.4c0,1.8,0.7,4.1,4.6,4.6c-1.6,0-4.6,1.6-4.6,4.4
	C166.4,465.4,163.2,463.8,161.8,463.8z"/>
<path fill="#E7CE79" d="M422.2,349.6c3.2,0,4.6-2.7,4.6-4.4c0,1.8,0.7,4.1,4.6,4.6c-1.6,0-4.6,1.6-4.6,4.4
	C426.8,351.1,423.6,349.6,422.2,349.6z"/>
<path fill="#E7CE79" d="M791.9,381c3.2,0,4.6-2.7,4.6-4.4c0,1.8,0.7,4.1,4.6,4.6c-1.6,0-4.6,1.6-4.6,4.4
	C796.5,382.6,793.3,381,791.9,381z"/>
<path fill="#E7CE79" d="M580.6,313.7c3.2,0,4.6-2.7,4.6-4.4c0,1.8,0.7,4.1,4.6,4.6c-1.6,0-4.6,1.6-4.6,4.4
	C585.2,315.3,582,313.7,580.6,313.7z"/>
<path fill="#E7CE79" d="M466.2,313.4c6.7,0,9.7-5.6,9.7-9.3c0,3.7,1.5,8.6,9.7,9.7c-3.4,0-9.7,3.4-9.7,9.3
	C475.9,316.8,469.2,313.4,466.2,313.4z"/>
<path fill="#E7CE79" d="M670,237c6.7,0,9.7-5.6,9.7-9.3c0,3.7,1.5,8.6,9.7,9.7c-3.4,0-9.7,3.4-9.7,9.3C679.7,240.4,673,237,670,237z
	"/>
<path fill="#886955" d="M221.9,553.4c0,0-26.6,25-62.6,29.1s-62.6,18-69.9,17.6c-7.4-0.4,0,0.6,0,0.6l-35.2,46.7
	c48-0.4,91.5-4.7,162.6,15.3c11.1,0.6,14.1-7.9,36.5-9.1c16.2-1.6,7.7-4.5,20.3-7.5c12.6-3,84.7-6.4,110.6-4.9s13.7-0.5,23.6,0.1
	s146.8,3.5,183.3,15.4c36.5,12,52.6,3.6,74.8,6c22.2,2.5-1.5-16.7,56.6-20.8c8.7-0.6,59-9.6,65.2-9.3c6.2,0.3-9.9-66.1-15.9-70.1
	c-2.2-1.5-4.2-1.5-6.3-0.8c-3.4,1.1-7.1,3.8-12.5,3.5c-8.7-0.5-13.8,2.9-17.5,2.7c-3.7-0.2-15,2.9-22.5,2.5
	c-7.4-0.4-27.4,2.2-40.9-1.1s-17.4,1.5-22.3,0c-4.9-1.5-3.5-3.9-6-2.8c-2.5,1.1-1.3,1.2-2.5,1.1c-1.2-0.1-5.2,3.4-8.9,3.2
	c-3.7-0.2-54.7,1.9-69.4-1.4c-14.7-3.3-9.9-0.6-21-1.2c-11.1-0.6-23.6,1.2-38.5,1.6c-14.9,0.4-111.4-3.8-116.2-5.3
	c-4.9-1.5-17.3-1-22.2-2.5c-4.9-1.5-19.8,0.1-25.9-2.7c-6-2.8-7.3-1.7-8.4-5.4s-3.6-1.4-5.8-6.5c-2.2-5.1-4.7-4-5.8-6.5
	s0.2-3.7-8.4-4.2c-8.7-0.5-52.2,2-52.2,2s-3.6-1.4-8.9,4.5s-26.6,10.9-27.9,10.8c-1.2-0.1-37,84.7-6.1,108.8L221.9,553.4z"/>
<path fill="#886955" d="M788,632.3c30.3-2.6,85.3-6.9,87.3-9.3c2-2.4,13.9-7.2,25-6.6s21.2-4.4,31.7-5c10.5-0.6,49.4-90.8,49.4-90.8
	c-21.9-4.9-48.2,13.9-55.6,14.1c-7.4,0.2-8.2,3.8-11.3,3.7c-3.1-0.2-16,10.2-27,9.6s-95.3,4.5-110.4,12.3
	c-15.1,7.8,5.4,48.9,5.4,48.9l4.9,23L788,632.3z"/>
<path fill="#F5DF70" d="M503.5,625.7c-2,2.2-6.9,6.4-9.9,6.8c4.4-1.6-13.8-5.2-6-23.6c2.2-4.8,10.4-6.4,15.3-8.6
	c5.4-2.4-3.8-11.8,3.8-23c0,0,0,0,0,0C500.2,596,524.2,603.5,503.5,625.7z M504.6,601.9c-19.4,4.1-15.3,26.7-5.8,23.6
	c1.3-0.4,3.4-2.2,4.3-3.1C507.8,617.5,502.7,606,504.6,601.9z"/>
<path fill="#F5DF70" d="M527.5,615.9c0.3,1,0.7,2,1.2,3c0.7,1.3,1.6,2.4,2.6,3.4c2.2,1.9,4.9,2.9,8.2,2.9c1,0,2.1-0.1,3.3-0.3
	l-9.3,7c-0.4,0,1.1-0.9,0.6-2c-0.2-0.5-3.8,1.2-4.4,1.1c-1.5-0.4-1.9-0.6-3.1-1.4c-3.5-2.4-5.7-6.3-6.6-11.7c-0.3-1.6-0.5-3.3-0.5-5
	c0-2,0.2-4,0.6-6.1c1.6-7.8,9.5-11.1,12.3-20.2c-2.7,10.2,9.1,6,12.6,12.9c1.6,3.2-2.8,5.6-2.8,5.6L527.5,615.9z M528.6,598.2
	c-7.5,5.8-1.4,15.7-1.1,17.6c0,0,8.1-6.5,9.3-9.6C537.8,603.6,536.2,592.3,528.6,598.2z"/>
<g>
	<path fill="#F5DF70" d="M583.8,630.1c2.2,0.5,0,0,2.7,0.5c6,1.2,12,5.9,22.4,0c0,0-4.9,7.5-12.6,6.4c-4.3-0.6-9.8-2.9-17.5-5.4
		c-1.6-0.5-5.5-1.6-7.1,0.5c0-2.1,9.3-2.1,11.5-2.1c4.9-10.2-11.5-16.6-11.5-30c0-2.7,0.4-5.4,1.3-8.1c2.5-8.1,8.6-15.4,20-15.1
		c1.5,0,3.1,0.5,4.9,1.5c3.1,1.7,5.5,4.4,7.1,8.1c0.4,0.9,0.6,1.9,0.6,2.8c0,1.2-0.3,2.5-1,3.8c-0.9,1.8-4.3,4.9-10.2,9.2l-0.3,0.2
		l-0.2,0.1l-0.2,0.1c2.6-2.9,4.3-4.2,5.9-7.9c3.8-10.7-8.7-16.6-16.4-12.9c-6,4.1-12,19.8,0.4,35l0.2,0.4
		C585.6,622.3,587,625.9,583.8,630.1z"/>
	<path fill="#F5DF70" d="M637.3,624c0,0.9,0.2,1.8,0.5,2.6c0.3,0.7,1.6,3.6,4.9,2c0,0-6.5,4.8-8.8,6.1c0,0-0.1,0,0,0
		c2.3-1.9-1.5-1.1-3.1-3.5c-0.5-0.8-1.5-3.4-1.6-4.3l-9.3,7c0.5-4.3-4.9-4.8-8.2-3.8c5.5-1.6,2.1-24.2,2.1-24.2c0-0.7,0.6-5.8-3.3-5
		l6.7-4.9c1,0.5,5.3,2.5,4.9,8.5v20.7c0,1.3,0.9,2.4,2.6,3.4l4.4-3.2v-18.7c0-0.9-0.2-1.8-0.5-2.6c-0.3-0.7-0.6-1.3-1.1-1.8
		c-0.6-0.6-0.5-0.6-1.7-1.4c6.6-1.9,6.6-6.7,6.6-6.7h0c0,0,1.6,5.9,6.5,4.3c-0.5,1.1-1.5,3.4-1.5,4.6
		C637.4,604.3,637.4,611.3,637.3,624z"/>
	<path fill="#F5DF70" d="M655.5,624.1c0,2.6,2,7.1,4.7,4.9c0,0-4.4,3.2-8.1,5.7c0,0,0,0,0,0h0c2.8-1.4-2.1-8.4-6-5.7
		c1.1-1.1,1.2-2,1.2-3.1v-19.1c0-1.7-0.1,0.2-0.1-4.6c-1.6-2.7-5.5,1.4-6,1.1l9.6-7.2h0l0.1,0.1l0.2,0.1l0.3,0.1
		c0.2,0.1,0.4,0.3,0.7,0.4c0.3,0.2,0.5,0.4,0.8,0.6c0.6,0.5,1.2,1.1,1.6,1.8c0.5,0.8,0.9,1.7,1.1,2.6l8.1-5.9c-1.2,0.9-1,2.4-0.1,3
		c1,0.8,6,1.6,6.5-1.6c1,1.6,0.9,6.3,0.9,8.3v18.3c0,2.6-0.3,8.2,5.7,4.9l-9.2,5.7l0,0h0c2.2-1.4-4.7-5.3-4.7-8.8v-20.3
		c1.4-0.2,6.9-1.8,6.9-5c-1.6,1.6-5.5,4.3-9.5,1.6l-4.5,3.2V624.1z"/>
	<path fill="#F5DF70" d="M701.6,625.8c0,0.7,0.7,1.5,1.1,2.1c0.3,0.5,2.2,2.7,4.9,1.1c0.7-0.4-7.8,5.7-7.8,5.7
		c-1.1-0.6-2.1-1.6-2.9-2.9c-0.6-1-1.1-2.1-1.5-3.3l-8.5,6.2c-4.1-1.6-6.5-4.2-7.1-7.8h0c-0.1-0.6-0.2-1.3-0.2-2.1h0l0.1-11.9
		c0-1.6,1.1-3.8,3.8-6.4c3.3-3.2,3.3-3,5.5-4.8c3.8-3.2,2.7-2.1,3.8-4.8c1.1,2.1,4.9,4.8,9,3.5c-0.8,2.9-0.8,7.3-0.8,9.3
		L701.6,625.8z M695.1,605.7c0-1.3-0.9-2.4-2.6-3.4c-2.9,2.1-4.4,4.4-4.4,6.8v16.1c0,1.3,0.9,2.4,2.6,3.4l4.3-3.1L695.1,605.7z"/>
	<path fill="#F5DF70" d="M569,631.2c1.2-1.1,2.6-2.1,4.1-2.8c1.5-0.7,3.2-1.1,4.9-1.3c3.4-0.4,6.7,0.2,10,1c1.6,0.4,3.2,0.9,4.8,1.3
		c1.6,0.4,3.2,0.8,4.9,1c1.6,0.2,3.3,0.3,4.9,0.1c1.6-0.2,3.2-0.7,4.7-1.5c-1.4,0.9-3,1.5-4.6,1.8c-1.7,0.3-3.4,0.2-5,0
		c-3.3-0.4-6.5-1.4-9.7-2.2c-3.2-0.8-6.5-1.3-9.8-1.1C574.8,627.8,571.6,629.1,569,631.2z"/>
	<path fill="#F5DF70" d="M572,631.4c-0.3,0.4-0.4,0.9-0.4,1.4c0,0.5,0,1,0.2,1.5c0.2,0.5,0.4,0.9,0.8,1.1c0.4,0.2,0.9,0.3,1.4,0.2
		c0.5-0.1,1-0.2,1.4-0.4c0.4-0.2,0.9-0.4,1.1-0.8c0.2-0.4-0.2-0.8-0.6-1.1c-0.4-0.2-1-0.3-1.4-0.1c0.4-0.3,1-0.3,1.5-0.1
		c0.2,0.1,0.5,0.3,0.7,0.5c0.2,0.2,0.3,0.6,0.2,0.9c-0.1,0.3-0.3,0.5-0.5,0.7c-0.2,0.2-0.5,0.3-0.7,0.4c-0.5,0.2-1,0.4-1.5,0.4
		c-0.5,0.1-1.1,0-1.6-0.3c-0.5-0.3-0.8-0.8-0.9-1.3c-0.1-0.5-0.2-1-0.1-1.6c0-0.3,0.1-0.5,0.2-0.8
		C571.7,631.9,571.8,631.6,572,631.4z"/>
	<path fill="#F5DF70" d="M579.9,634.9c2.3-3,3.1-7.1,2-10.8c-0.5-1.8-1.5-3.5-2.7-4.9c-1.2-1.5-2.6-2.7-3.9-4.2
		c-2.6-2.9-4.7-6.1-6.2-9.7c-1.4-3.5-2-7.5-1.3-11.3c0.7-3.8,2.7-7.3,5.3-10.1c2.6-2.8,5.5-5.4,9-7.3c3.4-1.9,7.3-2.9,11.2-2.7
		c1.9,0.2,3.8,0.7,5.6,1.6c1.7,0.9,3.3,2.1,4.4,3.6c-1.2-1.5-2.8-2.7-4.5-3.5c-1.7-0.8-3.6-1.3-5.5-1.4c-3.8-0.2-7.7,0.9-11,2.8
		c-3.3,1.9-6.2,4.4-8.8,7.2c-2.5,2.8-4.4,6.2-5.1,9.9c-0.7,3.7-0.2,7.5,1.2,11c1.4,3.5,3.6,6.7,6,9.6c1.2,1.4,2.7,2.7,3.9,4.3
		c1.2,1.5,2.2,3.2,2.7,5.1C583.2,627.8,582.3,631.9,579.9,634.9z"/>
	<path fill="#F5DF70" d="M596,600.9c-1.2,1.6-3.3,2.6-5.5,2.6c-2.1,0-4.3-0.7-6-2.1c-0.8-0.7-1.5-1.6-2-2.6c-0.5-1-0.7-2.1-0.7-3.2
		c0-1.1,0.2-2.2,0.6-3.2c0.4-1,0.9-1.9,1.5-2.8c0.6-0.9,1.4-1.8,2.4-2.3c1-0.6,2.3-0.8,3.5-0.6c1.2,0.2,2.2,0.8,3.1,1.5
		c0.9,0.7,1.6,1.5,2.1,2.5c0.3,0.5,0.5,1,0.6,1.6c0.1,0.6,0.1,1.2-0.1,1.8c-0.1,0.3-0.4,0.6-0.6,0.8c-0.1,0.1-0.3,0.2-0.4,0.2
		c-0.1,0.1-0.2,0.1-0.4,0.2c-0.5,0.2-1,0.4-1.6,0.5c-1.1,0.2-2.3,0-3.1-0.8c-0.4-0.4-0.7-0.8-0.8-1.4c-0.1-0.5-0.1-1,0-1.5
		c-0.1,1,0.3,2,1.1,2.5c0.8,0.5,1.8,0.6,2.7,0.3c0.4-0.1,0.9-0.3,1.3-0.6c0.1-0.1,0.2-0.1,0.3-0.2c0.1-0.1,0.2-0.1,0.2-0.2
		c0.1-0.1,0.2-0.3,0.3-0.4c0.2-0.7-0.1-1.6-0.6-2.4c-1-1.5-2.6-2.8-4.3-3.1c-0.8-0.1-1.7,0-2.4,0.5c-0.7,0.4-1.4,1.1-1.9,1.9
		c-1.1,1.6-1.8,3.4-1.9,5.2c-0.1,1.8,0.6,3.6,2,4.9c1.3,1.3,3.2,2.1,5.1,2.3C592.5,602.9,594.6,602.3,596,600.9z"/>
</g>
<g>
	<path fill="#F5DF70" d="M331.6,605.6c7.4,1.1,13.9,7.4,13.6,11.3c-1.1,19.8-20.4,15.3-26.9,15.3c-6,0,0.8-29.8,4-47
		c0,0,20-9.5,17.5-8c-3.8,2.1-6,5.4,2.7,9.6c3.3,1.6,2.8,7.6-5.5,14.5C335.2,602.8,332.9,604.4,331.6,605.6z M323.6,586.1
		c-1.4,2.3-3.4,20.1-3.4,20.1c0.9-0.1,12,1.1,16.4-9.1c1.6-4.3-11.5-2.7-10.9-11.8L323.6,586.1z M337.3,619.2
		c0.4-3.1-3-9.5-5.2-10.4c-2.7-1-10.3-0.8-11.5-0.5c0,0.7-3.4,10.6-4.4,14.5C316.7,622.7,335.4,635.6,337.3,619.2z"/>
	<path fill="#F5DF70" d="M369.6,594c-0.3,3.6,2.9,5.7,7.8,3c0,0-5.8,4.8-8.2,4.8c-1.6,0-2.1-2.3-3.8-3.2l-3.8,2.7l-1.6,22
		c0,0.9,0.5,7.5,4.9,4.6c0,0-5.4,4-6.8,4.9c1.4-1.5-3-0.4-4.1-3.9c-0.5-1-0.8-2-0.8-3.2v-20.9c0-1.7,0.7-7.8-3.3-5.8
		c0,0,4-3.1,6.7-4.9c-1.6,1.8,2.2,0.8,3.7,3.2c0.5,0.8,0.9,1.7,1,2.6L369.6,594z"/>
	<path fill="#F5DF70" d="M396,626.5c-4.9,4.3-7.5,6.2-7.5,6.2h0l-0.1,0l-0.2-0.1l-0.3-0.2c-0.3-0.2-0.5-0.4-0.8-0.5
		c-0.3-0.2-0.6-0.5-0.9-0.8c-0.7-0.7-1.3-1.4-1.7-2.2c-0.5-1-0.8-2-0.8-3.2v-20.9c0.3-5.6-3-5.9-3.5-6.2c0,0,6.5,0,7-4.5
		c0,0-0.4,4.5,6.1,4.5C386.7,599.2,387.2,632.4,396,626.5z"/>
	<path fill="#F5DF70" d="M425.4,616.9c0,3.5-3.3,15-9.8,15c5.5-0.5,4.7-7.4,4.7-9.9l-0.3-36.8c0-1.1,0.2-2.2,0.7-3.2
		c0.4-0.8,0.9-1.5,1.7-2.2c0.3-0.3,0.6-0.5,0.9-0.7c0.2-0.2,0.5-0.4,0.8-0.5l0.3-0.2l0.2-0.1l0.1,0l0,0l0,0c0,0-2-0.3-2,6.1
		L425.4,616.9z"/>
	<path fill="#F5DF70" d="M445.7,632.3c2.1-3.6-9.4-1.5-12.1-10.6c-3.8-12.3,5.2-21.9,7.6-23.6c6-4.3,8.2-2.1,9.8-7.5
		c1.1,7,16.4,9.1,6.5,30C450,631.3,449.4,627.6,445.7,632.3z M443.7,599.4c-13.9,12.1,1.1,29.9,6.9,26.2
		C462,618.5,453.8,589.5,443.7,599.4z"/>
	<ellipse fill="#F5DF70" cx="387.5" cy="586" rx="2.5" ry="2.4"/>
	<path fill="#F5DF70" d="M432.5,631.9c-2.1-2.1-12.6-0.5-16.6,0c10.6-3.2,15.5-3.2,16.1-6.4L432.5,631.9z"/>
	<path fill="#F5DF70" d="M430.3,580.7l-0.5-0.1c0.2-1.4-0.3-2.4-1.3-2.8c-1.6-0.6-4.3,0.2-6.1,2.7l-0.4-0.3c2.1-2.8,5-3.5,6.7-2.9
		C429.9,577.9,430.5,579.1,430.3,580.7z"/>
	<ellipse fill="#F5DF70" cx="428.4" cy="580.7" rx="2.5" ry="2.4"/>
	<path fill="#F5DF70" d="M406.3,616.9c0,3.5-3.3,15-9.8,15c5.5-0.5,4.7-7.4,4.7-9.9l-0.3-36.8c0-1.1,0.2-2.2,0.7-3.2
		c0.4-0.8,0.9-1.5,1.7-2.2c0.3-0.3,0.6-0.5,0.9-0.7c0.2-0.2,0.5-0.4,0.8-0.5l0.3-0.2l0.2-0.1l0.1,0l0,0l0,0c0,0-2-0.3-2,6.1
		L406.3,616.9z"/>
	<path fill="#F5DF70" d="M413.4,631.9c-2.1-2.1-12.6-0.5-16.6,0c10.6-3.2,15.5-3.2,16.1-6.4L413.4,631.9z"/>
	<path fill="#F5DF70" d="M411.2,580.7l-0.5-0.1c0.2-1.4-0.3-2.4-1.3-2.8c-1.6-0.6-4.3,0.2-6.1,2.7l-0.4-0.3c2.1-2.8,5-3.5,6.7-2.9
		C410.8,577.9,411.4,579.1,411.2,580.7z"/>
	<ellipse fill="#F5DF70" cx="409.3" cy="580.7" rx="2.5" ry="2.4"/>
	<path fill="#F5DF70" d="M319.3,632.1c-1.9,0-3.9-0.8-5.4-2c-1.6-1.2-2.9-2.9-3.4-4.9c-0.2-1-0.2-2.1,0.1-3.1c0.3-1,0.9-1.9,1.7-2.6
		c1.5-1.4,3.5-2,5.4-2.3c-1.7,0.9-3.3,1.8-4.4,3.2c-0.5,0.7-1,1.4-1.1,2.2c-0.2,0.8-0.2,1.6,0,2.4c0.4,1.6,1.4,3.1,2.6,4.4
		C316,630.4,317.5,631.5,319.3,632.1z"/>
	
		<ellipse transform="matrix(0.5733 -0.8193 0.8193 0.5733 -372.8371 524.1508)" fill="#F5DF70" cx="316.8" cy="620.1" rx="3.2" ry="2.2"/>
	<path fill="#F5DF70" d="M307.6,596.5c-1.4-1.6-2.1-3.8-2.3-5.9c-0.2-2.1,0.1-4.3,0.8-6.4c0.7-2,1.9-3.9,3.3-5.6
		c1.4-1.7,3.2-3,5-4.2c3.8-2.2,8.1-3.4,12.5-3.9c2.2-0.3,4.4-0.4,6.5-0.3c2.2,0,4.4,0.3,6.5,0.9c2.1,0.6,4.2,1.6,5.9,2.9
		c1.8,1.4,3.2,3.1,4.2,5.1c1,2,1.5,4.1,1.6,6.3c0.1,2.2-0.2,4.4-0.8,6.4c-1.2,4.2-3.8,7.9-7.1,10.7c-3.4,2.7-7.6,4.4-11.9,4.9
		c2.1-0.3,4.2-0.9,6.2-1.8c2-0.9,3.8-2,5.4-3.4c1.6-1.4,3-3,4.1-4.8c1.1-1.8,2-3.7,2.5-5.7c1.1-4,1-8.4-0.9-12.1
		c-0.9-1.8-2.3-3.5-3.9-4.7c-1.7-1.3-3.6-2.2-5.6-2.7c-4.1-1.1-8.4-1-12.7-0.6c-4.2,0.5-8.4,1.6-12.1,3.7c-3.7,2-6.8,5.3-8.3,9.2
		c-0.8,2-1.1,4.1-1,6.2c0.1,1,0.2,2.1,0.6,3.1C306.4,594.7,306.9,595.7,307.6,596.5z"/>
	<path fill="#F5DF70" d="M334.8,607.7c-1.2,0.8-2.5,1.4-3.9,1.9c-1.4,0.5-2.8,0.8-4.2,1.1c-1.4,0.3-2.8,0.5-4.3,0.6
		c-1.4,0.1-2.9,0.2-4.3,0.2l2.1-0.3c0.7-0.1,1.4-0.2,2.1-0.3c1.4-0.2,2.8-0.5,4.2-0.8c1.4-0.3,2.8-0.6,4.2-1c0.3-0.1,0.7-0.2,1-0.3
		c0.3-0.1,0.7-0.2,1-0.3c0.3-0.1,0.7-0.2,1-0.4C334.2,608,334.5,607.9,334.8,607.7z"/>
	<path fill="#F5DF70" d="M333.9,580.1c-12.1,5.2-19.8,8.4-24.1,13.8"/>
	<path fill="#F5DF70" d="M331.6,605.6c2.4,0,4.7,0.9,6.8,2c2.1,1.2,4,2.7,5.6,4.4c1.6,1.8,2.9,3.9,3.6,6.2c0.7,2.3,0.5,4.9-0.6,7.2
		c-0.3,0.5-0.6,1.1-0.9,1.6c-0.4,0.5-0.7,1-1.1,1.4c-0.4,0.4-0.8,0.9-1.3,1.3l-1.4,1.2c-1,0.7-2,1.4-3,1.9c-1,0.6-2.1,1.1-3.2,1.6
		c-4.4,1.9-9.1,3-13.8,3.8c1.1-0.3,2.3-0.6,3.4-0.9c1.1-0.3,2.3-0.7,3.4-1.1c1.1-0.4,2.2-0.8,3.3-1.2c1.1-0.5,2.2-0.9,3.2-1.4
		c2.1-1,4.2-2.2,6-3.6c1.8-1.4,3.4-3.1,4.3-5.1c0.9-2,1.1-4.3,0.5-6.5c-0.6-2.2-1.7-4.2-3.2-5.9c-1.5-1.7-3.3-3.3-5.2-4.5
		c-1-0.6-2-1.2-3.1-1.6C333.9,606,332.8,605.7,331.6,605.6z"/>
</g>
<path fill="#092F43" d="M58.3,635.3c14.4-20,74.4-16,74.4-16c-38-4-68,3-71-12C58.7,592.3,58.3,635.3,58.3,635.3z"/>
<path fill="#092F43" d="M965.7,558.5c-0.1,0.3-0.3,0.6-0.5,0.8c-7.6,10.1-52.3,16.1-52.3,16.1c21,2,45,2,44,8L965.7,558.5z"/>
<line fill="#092F43" x1="122.7" y1="628.3" x2="202.7" y2="625.3"/>
<line fill="#092F43" x1="823.7" y1="597.3" x2="903.7" y2="594.3"/>
<line fill="#092F43" x1="168.7" y1="601.3" x2="222.7" y2="599.5"/>
</svg>
